<svg style="display: none;">
  <symbol xmlns="http://www.w3.org/2000/svg" viewBox="0 0 27 35" id="icon-htmlacademy">
    <path d="M13.6 0h-.1L0 1.4v24.7l13.5 8 13.4-8V1.4L13.6 0zM25 12.1L13.5 5.3v-.1h-.1l-.1-.1v.1L1.9 12.1v-9l11.5-1.2L25 3.1v9zM13.4 6.8l11.5 6.7-4.5 2.6-7.1-4.2v1.4l5.9 3.5-.9.5-5-3v1.4l3.8 2.3-.8.5-3-1.8v1.4l1.9 1.1-1.8 1.1L2 13.6l11.4-6.8zM1.9 15.1l11.4 6.8v1l-7.9-4.7v1.4l8 4.8v1.1l-8-4.7v1.4l8 4.8 8.1-4.9v-5.2l3.4-2v10l-11.5 6.9L1.9 25v-9.9z"></path>
  </symbol>
  <symbol xmlns="http://www.w3.org/2000/svg" viewBox="0 0 23 21" id="icon-like">
    <path opacity=".3" d="M12.96 3.78l-.62 3.05-.63 2.62h9.09v2.2l-3.03 7.25h-9.4V8.4l4.6-4.62zM2.1 10.5v8.4-8.4zM13.8 0L6.9 6.93c-.42.32-.63.84-.63 1.47v10.5c0 1.16.94 2.1 2.1 2.1h9.4c.84 0 1.57-.52 1.88-1.26l3.14-7.45c.1-.21.1-.53.1-.74v-2.1H23a2.1 2.1 0 00-2.1-2.1h-6.58l1.05-4.83v-.31c0-.43-.21-.84-.42-1.16L13.8 0zM4.18 8.4H0V21h4.18V8.4z" fill="#000"></path>
  </symbol>
  <symbol xmlns="http://www.w3.org/2000/svg" viewBox="0 0 16 12" id="icon-mail">
    <path d="M8 8c-.3 0-.5-.1-1-.3L0 4v7c0 .5.5 1 1 1h14c.5 0 1-.5 1-1V4L9 7.7c-.5.2-.7.3-1 .3zm7-8H1C.5 0 0 .5 0 1v.8L8 6l8-4.2V1c0-.5-.5-1-1-1z" fill="#000"></path>
  </symbol>
  <symbol xmlns="http://www.w3.org/2000/svg" viewBox="0 0 18 18" id="icon-phone">
    <path d="M3.6 7.8c1.4 2.8 3.8 5.1 6.6 6.6l2.2-2.2c.3-.3.7-.4 1-.2 1.1.4 2.3.6 3.6.6.6 0 1 .4 1 1V17c0 .6-.4 1-1 1C7.6 18 0 10.4 0 1c0-.6.4-1 1-1h3.5c.6 0 1 .4 1 1 0 1.2.2 2.4.6 3.6.1.3 0 .7-.2 1L3.6 7.8z" fill="#010101"></path>
  </symbol>
  <symbol xmlns="http://www.w3.org/2000/svg" viewBox="0 0 24 17" id="icon-tick">
    <path d="M22.93 1.32l-1.1-1.1c-.3-.3-.9-.3-1.2 0l-11.9 11.9-6.2-6.2c-.3-.3-.9-.3-1.2 0l-1.1 1.1c-.3.3-.3.9 0 1.2l7.8 7.8c.2.2.4.2.6.2.2 0 .4-.1.6-.2l13.5-13.5c.5-.3.5-.8.2-1.2z" fill="#000"></path>
  </symbol>
  <symbol xmlns="http://www.w3.org/2000/svg" viewBox="0 0 18 15" id="icon-twitter">
    <path d="M11.3.17c1.7-.5 3.1.2 3.7 1.1.7-.2 1.4-.5 2.1-.7 0 .8-.5 1.5-.9 1.7.7.2 1.3-.5 1.3-.5-.2 1-1 1.7-1.6 2-.2 6.6-3.3 11-10.4 10.8H5c-.4 0-4.3-.4-5-1.8 2.3.2 4-.4 4.8-1.1-1-.3-2.8-.5-3.1-2.9.4.1.6.2 1.3.1-1.2-.8-2.6-1.5-2.5-3.7.3.3 1.1.5 1.4.5-.7-.2-2-3.3-.9-4.8 1.9 1.8 3.8 3.5 7.4 3.7.1-2.3 1.1-3.8 2.9-4.4z" fill="#fff"></path>
  </symbol>
  <symbol xmlns="http://www.w3.org/2000/svg" viewBox="0 0 20 20" id="icon-video-fullscreen">
    <path d="M0 0v6h3V3h3V0H0zm3 14H0v6h6v-3H3v-3zM17 0h-3v3h3v3h3V0h-3zm0 17h-3v3h6v-6h-3v3z" fill="#5C6870"></path>
  </symbol>
  <symbol xmlns="http://www.w3.org/2000/svg" viewBox="0 0 16 20" id="icon-video-replay">
    <path d="M8 4V0L3 5l5 5V6c3.3 0 6 2.7 6 6s-2.7 6-6 6-6-2.7-6-6H0c0 4.4 3.6 8 8 8s8-3.6 8-8-3.6-8-8-8z" fill="#5C6870"></path>
  </symbol>
  <symbol xmlns="http://www.w3.org/2000/svg" viewBox="0 0 32 20" id="icon-video-subtitles">
    <path d="M29 0H3C1.3 0 0 1.3 0 3v14c0 1.7 1.3 3 3 3h26c1.7 0 3-1.3 3-3V3c0-1.7-1.3-3-3-3zM14.4 15.9c-.5.1-1.1.1-1.7.1-.7 0-1.4-.1-2-.3-.6-.2-1.2-.6-1.6-1-.4-.4-.8-1.1-1.1-1.9-.3-.8-.4-1.7-.4-2.8 0-1.1.2-2.1.5-2.9.3-.8.7-1.4 1.2-1.9s1.1-.8 1.7-1a9.9 9.9 0 013.5-.1c.5.1.8.2 1.1.3l-.4 1.9-.9-.3H13c-.9 0-1.6.3-2.2 1-.6.7-.8 1.7-.8 3 0 .6.1 1.1.2 1.6s.3.9.6 1.3c.3.3.6.6 1 .8.4.2.9.3 1.4.3.5 0 .9 0 1.3-.1.3-.1.6-.2.9-.4l.5 1.8c-.5.3-1 .4-1.5.6zm8.7 0c-.5.1-1.1.1-1.7.1-.7 0-1.4-.1-2-.3-.6-.2-1.2-.6-1.6-1a4 4 0 01-1.1-1.9c-.3-.8-.4-1.7-.4-2.8 0-1.1.2-2.1.5-2.9.3-.8.7-1.4 1.2-1.9s1.1-.8 1.7-1a9.9 9.9 0 013.5-.1c.5.1.8.2 1.1.3l-.4 1.9L23 6h-1.3c-.9 0-1.6.3-2.2 1-.6.7-.8 1.7-.8 3 0 .6.1 1.1.2 1.6s.3.9.6 1.3c.3.3.6.6 1 .8.4.2.9.3 1.4.3.5 0 .9 0 1.3-.1.3-.1.6-.2.9-.4l.5 1.8c-.5.3-1 .4-1.5.6z" fill="#5C6870"></path>
  </symbol>
  <symbol xmlns="http://www.w3.org/2000/svg" viewBox="0 0 20 14" id="icon-youtube">
    <path d="M17.1 0H2.8C1.3 0 0 1.3 0 2.8v8.3C0 12.7 1.3 14 2.8 14h14.3c1.6 0 2.8-1.3 2.8-2.8V2.8C20 1.3 18.7 0 17.1 0zM7 10.4V3.6L13.8 7 7 10.4z" fill="#fff"></path>
  </symbol>
  <symbol xmlns="http://www.w3.org/2000/svg" viewBox="0 0 187 97" id="logotype-desktop">
    <path d="M186.6 0H0l80.5 90.5c7.1 7.9 18.6 7.9 25.7 0L186.6 0z" fill="#81B3D3"></path>
    <path d="M43.2.7l49.6 58.4 49.3-58L43.2.7z" fill="#23A9E1"></path>
    <path d="M122 17.3c-5.1 0-10.1.1-15.2.1 6-6.9 8.7-6.2 15.2-.1zm-41.2 5.4h26.7c-2-1.2-6.7-7.1-9.3-4.9-.2.2-7.5-8.9-12.3-4.5-4.2 3.8-6.1-.5-10.9 2.5-5.3 3.6 3.2 5.7 5.8 6.9z" fill="#fff"></path>
    <path d="M93.1 0H42.2v22.5L92.8 84l.3-.4 50.7-60.4V0H93.1zM54.9 1.8h5.5V19l-5.5-6.5V1.8zm-.8 9.8l-5-5.9V1.8h5v9.8zm19.3-2.7l-5.7-7.1h5.7v7.1zm-6.6 3.8L61.2 1.8h5.6v10.9zm-5.7-9.3l5.5 10.7c-2.8 2.1-4.7 4-5.5 4.9V3.4zm6.5-.5l5.6 6.9c-1.1.6-2.2 1.3-3.1 1.9-.9.6-1.7 1.2-2.5 1.8V2.9zm6.6-.2L79 6.9c-1.7.7-3.3 1.5-4.8 2.3V2.7zm5.6 3.9l-5.4-4.8h6v4.6c-.3 0-.4.1-.6.2zm19.1-4.8h5l-5 2.4V1.8zm-5.8 0h4.4l-4.4 2.1V1.8zm-.9 2l-4.2-2h4.2v2zm-5.5.5l-5.1-2.5h5.1v2.5zm-5.6-1.9l4.7 2.3c-1.6.4-3.2.8-4.7 1.3V2.4zm6.4 0L90.9 4c-1.2.1-2.3.2-3.5.4v-2h.1zm10.4.1v1.9c-1.1-.2-2.2-.3-3.4-.4l3.4-1.5zm6.5-.1v3.7c-1.5-.5-3.1-1-4.8-1.4l4.8-2.3zm.7-.6h5.9l-5.4 4.8c-.2-.1-.3-.1-.5-.2V1.8zm13.6 0h5.6l-5.6 10.9V1.8zm-6.6 0h5.7l-5.7 7v-7zm-.8.9v6.5c-1.5-.8-3.1-1.6-4.8-2.3l4.8-4.2zm6.6.2v10.5c-.7-.5-1.5-1-2.3-1.6-1-.7-2.2-1.4-3.4-2.1l5.7-6.8zm6.4.5v15.2c-1.1-1-2.9-2.7-5.5-4.6l5.5-10.6zm.8 16V1.8h5.5v11.4l-5.5 6.2c.1.1 0 .1 0 0zm6.3-17.6h5v4.7l-5 5.8V1.8zm-83 0v2.9l-2.5-2.9h2.5zM61.2 20l.1.1s3.6-3.9 9.2-7.6C75.8 9 83.8 4.9 92.8 5c8.9 0 17.1 4.2 22.3 7.7 5.6 3.7 9.3 7.5 9.4 7.6l-3.9 4.5c-6.9.9-11.9 6.1-18.6 5-3.4-.6-3.5-2.5-4.5-4.5-.7-1.5-1.9-1.3-3.5-1.9-1.4-.6-2.3-1.7-5.2-1.1-2.5.6-2.8 4.5-6 4.3-1.7-.1-1.8-2.5-4.2-5.5-6.3-7.6-12.2-6.5-16.2.5l30.3 35.9L61.2 20zm75.9-14.5V1.8h3.2l-3.2 3.7z" fill="#491213"></path>
    <path d="M88.7 70.9l4.1-6.5 4 6.5-4 6.5-4.1-6.5z" fill="#23A9E1"></path>
    <path d="M65.5 32.3c.5.6.9 1.3.8 2.1-.1.6-.9 1.6-.3 1.8.7-.9 1.5-1.9 2.2-2.8-.6-.2-5.4-5.8-5.4-6.5-1.1.6-2.1 1.2-3.2 1.7.2.7 1.3 0 1.9 0 .8.1 1.4.6 2 1.2-1.7 1.4-5.9 5-6.4 5.1-.2 0-1.1-.6-1.1-.1 0 .3.9 1 1 1.2.7.9 1.5 1.8 2.2 2.7.6-.3-.1-.7.2-1.2.3-.4 4.9-4.3 6.1-5.2zm-5.3-7c.4-.1.6.4 1-.1-.8-1-1.6-1.9-2.4-2.9-.4-.4-.8-.9-.7 0 .1.6-6.1 5.7-6.5 5.8-.5.2-.8-.4-1.1.1.7.9 1.5 1.7 2.2 2.6.2.3.5.6.7.9.3.3.2-.7.2-.6-.1-.5.5-.9.9-1.2 1.5-1.3 5.3-4.6 5.7-4.6zm-8.8-.9c-1.8.5-3.7-.2-4.2-2s.6-3.8 2.1-4.8c1.4-1 3.6-1 4.4.8.3.8.2 1.7-.1 2.5-.2.5-.6 1 .1 1.3.9-1.1 1.7-2.2 2.6-3.3-1.1-.6-1.5-1.7-2.3-2.6-.9-1.1-2.1-2.1-3.5-2.3-2.9-.4-5.6 2.6-5.8 5.2-.1 1.5.4 2.8 1.2 4 .8 1 1.9 1.6 2.4 2.8.3.1 2.7-1 3.3-1.3-.1-.1-.1-.2-.2-.3-.7.2 0 0 0 0zm39.3 36.4c-1.2-.8-4-4.7-4.6-5.3-.1-.1-.2-.3-.3-.4 0 0-.3.2-.2.2-.2.1.1.6-.1.9-.8 1.2-5.8 5-6 5.2-.6.4-1.2-.2-1.5.3.7.9 2.8 3.5 3 3.6.5.1.1-.8.2-1 .1-.4 2.6-2.4 3.5-3.2.3-.3.7.4.9.7.3.5.5 1 .3 1.6-.1.4-.7.9-.3 1.2.6-.7 2.4-2.8 2.6-3 .3-.3-.6 0-.5-.1-.4.2-.7.2-1.1 0-.1-.1-1.1-1.1-1-1.2.4-.4 1-1 1.5-1.1.9-.2 1.6 1.5 1.7 2.1.1.6.1 1.2-.1 1.8-.1.4-.5.7 0 .9.7-1 1.4-1.9 2.1-2.9.2-.2 0-.3-.1-.3-.1-.1.2 0 0 0zm-10.2-4.2c2.2-1.9 2.5-5.1.8-7.3-1.9-2.5-5.4-3.1-7.8-1.1-2.2 1.9-2.5 5-.8 7.3 2 2.7 5.2 3 7.8 1.1 1.2-.9-.1.1 0 0zm-.5-4.7c-.6 1.5-2.2 3.1-3.7 3.7-1.8.7-3.1-.8-2.4-2.6.7-1.5 2.2-3.1 3.7-3.7 1.9-.7 3.1.9 2.4 2.6-.4.9.1-.2 0 0zM74.1 42c.5.1.9.5 1.3 0-.7-.9-1.5-1.8-2.2-2.6-.6.3 0 .5-.2 1-.2.4-2.6.8-3.2.9.2-.6.9-2.6 1.2-2.8.5-.4.9.4 1.3-.1l-2.7-3.3c-.3-.4-.6-1-1-.7 0 0 0 1.5-.1 1.7-.1.2-.9 3.6-1.9 4.5-.5.4-2.2 1.9-2.7 2.1-.5.2-.8-.6-1.2 0 .8 1 1.7 2 2.5 3 .1.1.6.9.8.9.5.1.1-.9.1-1.1.2-.4 2.5-2.7 3.5-2.9 1.2-.2 3-.7 4.5-.6.3.1-.4 0 0 0z" fill="#fff"></path>
    <path d="M67.8 22.9c-4-.2-2.4-4 .4-4.8 2.6-.8 8.1 1.7 9.8 3.4-2.8.9-6.4.7-9.4.9-.2-3.2-1-2.1-.8.5zm9.5 12.5c-8.6-.1-2.8-13.3.1-12.5 3.4 1.1 3 12.6-.1 12.5zm6.1-4.3c-.8 2.5-2.4 3-2.2-.1.2-3.5 2.5-2.7 4.9-4 2-1.1 3.1-5.2 6.6-2.8 1.6 1.1 3.4.2 3.9 1.8 0-.1-4.5 10.3-2 10.3-5 0-2.8-5.9-.9-9.9-1.8.9-4.8 6.7-2.4 7.6-1.3 1.7-5.2 3.9-7.2 2.3-1.5-1.1-.7-3.2-.7-5.2zm4.1 9.6c-3.5 1-8.1-1.2-2.5-2.3 3.5-.7 7.2.7 2.5 2.3.1 0-.1 0 0 0zm4.4-.1c-.7-1.7.6-3.6 2.7-2.2 1.8 1.2-.9 3.1-2.7 2.2zm-3 4.6c-2.4-.7-10.5-.6-5.2-2.8 1.7-.6 10.2.2 5.2 2.8zm10.5 3.3c-1.4-1.2-2.9-1.3-4.2 0-1.8-3.3-8.3-2.2-11.4-2.7 1.6 4.1 14.8 4.9 15.6 2.7zM97.5 51c-3.2-.1-6.7-.6-9.6.1 1.9.5 6.4 1.8 2.2 2.9 1.5 2.2 4 2 5.6.1-.7-.3-1-.7-1.6-1.1 1.6-.3 3.2-1.2 3.4-2zm3.6-3.9c-5.3-3.1-4-5.4.4-7.6 2.3-1.1 7.3-5.2 9.4-3.9-3.3 3.9-6.6 7.7-9.8 11.5z" fill="#DC6243"></path>
    <path d="M97.3 39.8c-4.5-4.6 6.7-4.2 8.5-5.8 1.3.4 10.8-8.3 13.1-7.7-1.7 1.9-5.2 8.1-7.8 8.1-2 0-4-.3-5.5 1.1-2.2 2.1-5.9 3.1-8.3 4.3z" fill="#F49774"></path>
    <path d="M98.8 34.2c-2.5 1.3-4.8-3.9-.5-3.4 2.8.3 5.7-.2 8.3.2-2 2.3-4.7 3.6-7.8 3.2z" fill="#F4B1A4"></path>
    <path d="M111.4 52.5c.2.6.3 1.3.2 2-.1.9-1 2.9-2.2 2.3-1.2-.6-2.2-1.7-3.2-2.6.8-.9 1.5-1.7 2.9-1.3.4.1.7 0 .3-.3-.4-.2-3.1-2-3.3-1.8-.3.3.5.9.2 1.5-.2.4-.6.8-.9 1.2-.7-.6-1.9-1.3-1.1-2.3.5-.7 1.3-1.2 2.1-1.3.6-.1 1.8.4 2-.2-1.1-.5-2.2-1-3.3-1.6.2.8-3.3 4.5-4.1 5.5-.1.1-.7.6-.7.8 0 .4.6.1.7.1.5-.2 6.8 5.1 7 5.5.1.3-.2.6 0 .7 0 0 .2.2.3.2.4-.5 4.5-6 5.4-6.2-.8-1.2-1.6-2.4-2.4-3.7-.6.3 0 1 .1 1.5zm-6.2 6.7c-2.1-1.3-5.6 1.3-6.1 1.5-1 .5-1.8-.5-1.3-1.5.5-.8 1.4-1.2 2.3-1.3.3 0 1.3.2 1.5 0 .1-.2.2-.2 0-.3-.9-.6-1.7-1.2-2.6-1.7-.2 1.1-1.4 1.7-2.1 2.4-.8.9-1.5 1.9-1.5 3.2 0 1.1.7 2.1 1.7 2.7 1.1.6 2.3.1 3.3-.5.6-.4 1.3-.9 1.9-1.2 1-.5 2.3-.1 2 1.3-.3 1.1-1.4 2.1-2.4 2.3-.6.2-1.3.1-1.9-.1-.4-.1-1-.7-1.2-.1 1.2.8 2.3 1.7 3.5 2.5.1-.8.5-1.1 1.1-1.6.7-.6 1.4-1.3 2-2.1 1.2-1.7 1.6-4.1-.2-5.5zm0 0c1 .6-.6-.5 0 0zm36.7-39.6c-.7.7-8.4-2.3-9-2.8-.3-.1-.3-1.3-.7-.8l-1.2 1.5c-.4.5-.8 1-1.3 1.5-.3.3-.5.5 0 .7.8-.4 5.4 7.3 5 8.5-.7.4-6.9-5.1-7.1-5.4-.1-.1.3-1-.2-.9-.2 0-.7.9-.9 1.1-.3.4-.6.7-.9 1.1.3.5.5 0 1 0 .4.1 1.8 1.3 2.2 1.7-.7 0-2.7.1-2.9.1-.9.1-.4-.7-1-.9-.8.9-1.5 1.8-2.3 2.8-.4.5-.9 1.1-1.3 1.6-.1.1 0 0 0 .1.3.3.1.2.6 0s6.6 4.9 6.8 5.2c.4.4-.2 1 .4 1.2.6-.7 1.2-1.5 1.8-2.2.1-.1.1-.1 0-.2-.4-.4-.5.2-1 .2-.5-.1-4.4-3.4-5.9-4.6 1.8-.1 7.3-.3 8.2-.3.3 0 1.1.9 1.1 1.2-.1.4-.5.6.1.8.5-.6 1-1.1 1.5-1.7l.2-.3c.1-.1.1-.1.2-.3l.2-.2c.4-.5 1.8-2 1.6-2.1-.5-.4-.7.5-1.3-.1-.3-.2-1.2-1.8-1.4-2.2-.3-.4.6-.9 1-1.1.8-.5 3.2-1.2 3.5.3 0 .3-.3.5-.1.7 0 0 .2.2.3.2.2-.2 2.4-2.8 3.3-4-.3-.2-.4-.3-.5-.4zm-7.4 2.2c.1 0 .2-.1 0 0-.3.2-.7.5-1 .8-.5-.9-1-1.8-1.6-2.7 1.2.5 2.4 1 3.5 1.5-.2.1-.5.2-.9.4zM124.8 33c-2.4-2-5.6-1.4-7.6.8-1.9 2.3-1.7 5.7.6 7.6 2.3 1.9 5.7 1.4 7.6-.8 1.9-2.3 1.8-5.7-.6-7.6zm-.3 6.6s0 .1 0 0c-1.3 1.3-3.4.1-4.5-.7-1.1-.8-3.1-2.6-1.9-4.1 1.1-1.3 3.1-.2 4.2.5 1.2.8 3.4 2.6 2.3 4.2l-.1.1z" fill="#fff"></path>
    <path d="M124.8 33c1.2 1-.3-.2 0 0zm-.3 6.7c0-.1 0-.1 0 0l.1-.1c-.1 0-.1.1-.1.1zm-6.3 2.4c.1.1.3.3 0 0-2.9-2.2-6.3-1.6-8.5 1.1l-3 3.6c.4.5.8-.1 1.3.2.4.3 6.2 5.1 6.3 5.4.2.5-.3.5.1.9.2.1 4.5-5.2 4.9-6.2.9-1.8.3-3.7-1.1-5zm-1.3 6.8c-.2.3 0 .1-.7.7-.3.3-6.4-4.7-6.2-4.9.8-.9 2.6-1.6 3.6-1.3 2.2.5 5.2 3.2 3.3 5.5z" fill="#fff"></path>
  </symbol>
  <symbol xmlns="http://www.w3.org/2000/svg" viewBox="0 0 102 84" id="logotype-mobile">
    <path d="M0 0l50.6 59.1L101.7 0H0z" fill="#23A9E1"></path>
    <path d="M50.9 0H0v22.5L50.6 84l.3-.4 50.7-60.4V0H50.9zm0 57.1l-.3.4L3.7 1.8h94.4L50.9 57.1z" fill="#491213"></path>
    <path d="M50.6 57.5l.3-.4 27.6-32.3c-6.9.9-11.9 6.1-18.6 5-3.4-.6-3.5-2.5-4.5-4.5-.7-1.5-1.9-1.3-3.5-1.9-1.4-.6-2.3-1.7-5.2-1.1-2.5.6-2.8 4.5-6 4.3-1.7-.1-1.8-2.5-4.2-5.5-6.3-7.6-12.2-6.5-16.2.5l30.3 35.9z" fill="#491213"></path>
    <path d="M23.3 32.2c.5.6.9 1.3.8 2.1-.1.6-.9 1.5-.3 1.8.7-.9 1.5-1.9 2.2-2.8-.6-.2-5.4-5.8-5.4-6.5-1.1.6-2.1 1.2-3.2 1.7.2.7 1.3 0 1.9 0 .8.1 1.4.6 2 1.2-1.7 1.4-5.9 5-6.4 5.1-.2 0-1.1-.6-1.1-.1 0 .3.9 1 1 1.2.7.9 1.5 1.8 2.2 2.7.6-.3-.1-.7.2-1.2.3-.3 4.9-4.2 6.1-5.2zM18 25.3c.4-.1.6.4 1-.1-.8-1-1.6-1.9-2.4-2.9-.4-.4-.8-.9-.7 0 .1.6-6.1 5.7-6.5 5.8-.5.2-.8-.4-1.1.1.7.9 1.5 1.7 2.2 2.6.2.3.5.6.7.9.3.3.2-.7.2-.6-.1-.5.5-.9.9-1.2 1.5-1.4 5.3-4.6 5.7-4.6zm-8.8-.9c-1.8.5-3.6-.2-4.2-2-.5-1.8.6-3.8 2.1-4.8 1.4-1 3.6-1 4.4.8.3.8.2 1.7-.1 2.5-.2.5-.6 1 .1 1.3.9-1.1 1.7-2.2 2.6-3.3-1.1-.6-1.5-1.7-2.3-2.6-.9-1.1-2.1-2.1-3.5-2.3-2.9-.4-5.6 2.6-5.8 5.2-.1 1.5.4 2.8 1.2 4 .8 1 1.9 1.6 2.4 2.8.3.1 2.7-1 3.3-1.3-.1-.1-.1-.3-.2-.3-.7.2 0 0 0 0zm39.3 36.4c-1.2-.8-4-4.7-4.6-5.3-.1-.1-.2-.3-.3-.4 0 0-.3.2-.2.2-.2.1.1.6-.1.9-.8 1.2-5.8 5-6 5.2-.6.4-1.2-.2-1.5.3.7.9 2.8 3.5 3 3.6.5.1.1-.8.2-1 .1-.4 2.6-2.4 3.5-3.2.3-.3.7.4.9.7.3.5.5 1 .3 1.6-.1.4-.7.9-.3 1.2.6-.7 2.4-2.8 2.6-3 .3-.3-.6 0-.5-.1-.4.2-.7.2-1.1 0-.1-.1-1.1-1.1-1-1.2.4-.4 1-1 1.5-1.1.9-.2 1.6 1.5 1.7 2.1.1.6.1 1.2-.1 1.8-.1.4-.5.7 0 .9.7-1 1.4-1.9 2.1-2.9.2-.2 0-.3-.1-.3-.1-.1.2 0 0 0zm-10.2-4.2c2.2-1.9 2.5-5.1.8-7.3-1.9-2.5-5.4-3.1-7.8-1.1-2.2 1.9-2.5 5-.8 7.3 2 2.7 5.2 3 7.8 1.1 1.2-.9-.1.1 0 0zm-.5-4.7c-.6 1.5-2.2 3.1-3.7 3.7-1.8.7-3.1-.8-2.4-2.6.6-1.5 2.2-3.1 3.7-3.7 1.9-.7 3.1.9 2.4 2.6-.3.9.1-.2 0 0zM31.9 42c.5.1.9.6 1.3 0-.7-.9-1.5-1.8-2.2-2.6-.6.3 0 .5-.2 1-.2.4-2.6.8-3.2.9.2-.6.9-2.6 1.2-2.8.5-.4.9.4 1.3-.1l-2.7-3.3c-.3-.4-.6-1-1-.7 0 0 0 1.5-.1 1.7-.1.2-.9 3.6-1.9 4.5-.5.4-2.2 1.9-2.7 2.1-.5.2-.8-.6-1.2 0 .8 1 1.7 2 2.5 3 .1.1.6.9.8.9.5.1.1-.9.1-1.1.2-.4 2.5-2.7 3.5-2.9 1.2-.3 3-.8 4.5-.6.3.1-.4 0 0 0zm37.3 10.4c.2.6.3 1.3.2 2-.1.9-1 2.9-2.2 2.3C66 56.1 65 55 64 54.1c.8-.9 1.5-1.7 2.9-1.3.4.1.7 0 .3-.3-.4-.2-3.1-2-3.3-1.8-.3.3.5.9.2 1.5-.2.4-.6.8-.9 1.2-.7-.6-1.9-1.3-1.1-2.3.5-.7 1.3-1.2 2.1-1.3.6-.1 1.8.4 2-.2-1.1-.5-2.2-1-3.3-1.6.2.8-3.3 4.5-4.1 5.5-.1.1-.7.6-.7.8 0 .4.6.1.7.1.5-.2 6.8 5.1 7 5.5.1.3-.2.6 0 .7 0 0 .2.2.3.2.4-.5 4.5-6 5.4-6.2-.8-1.2-1.6-2.4-2.4-3.7-.6.4 0 1.1.1 1.5zM63 59.2c-2.1-1.3-5.6 1.3-6.1 1.5-1 .5-1.8-.5-1.3-1.5.5-.8 1.4-1.2 2.3-1.3.3 0 1.4.2 1.5 0 .1-.2.2-.2 0-.3-.9-.6-1.7-1.2-2.6-1.7-.2 1.1-1.4 1.7-2.1 2.4-.8.9-1.5 1.9-1.5 3.2 0 1.1.7 2.1 1.7 2.7 1.1.6 2.3.1 3.3-.5.6-.4 1.3-.9 1.9-1.2 1-.5 2.3-.1 2 1.3-.3 1.1-1.4 2.1-2.4 2.3-.6.2-1.3.1-1.9-.1-.4-.1-1-.7-1.2-.1 1.2.8 2.3 1.7 3.5 2.5.1-.8.5-1.1 1.1-1.6.7-.6 1.4-1.3 2-2.1 1.2-1.7 1.6-4.1-.2-5.5zm0 0c1 .5-.6-.5 0 0zm36.7-39.6c-.7.7-8.4-2.3-9-2.8-.3-.1-.3-1.3-.7-.8l-1.2 1.5c-.4.5-.8 1-1.3 1.5-.3.3-.5.5 0 .7.8-.4 5.4 7.3 5 8.5-.7.4-6.9-5.1-7.1-5.4-.1-.1.3-1-.2-.9-.2 0-.7.9-.9 1.1-.3.4-.6.7-.9 1.1.3.5.5 0 1 0 .4.1 1.8 1.3 2.2 1.7-.7 0-2.7.1-2.9.1-.9.1-.4-.7-1-.9-.8.9-1.5 1.8-2.3 2.8-.4.5-.9 1.1-1.3 1.6-.1.1 0 0 .1.1.3.3.1.2.6 0s6.6 4.9 6.8 5.2c.4.5-.2 1 .4 1.2.6-.7 1.2-1.5 1.8-2.2.1-.1.1-.1 0-.2-.4-.4-.5.2-1 .2-.5-.1-4.4-3.4-5.9-4.6 1.8-.1 7.3-.3 8.2-.3.3 0 1.1.9 1.1 1.2-.1.4-.5.6.1.8.5-.6 1-1.1 1.5-1.7l.2-.3c.1-.1.1-.1.2-.3l.2-.2c.4-.5 1.8-2 1.6-2.2-.5-.4-.7.5-1.3-.1-.3-.2-1.2-1.8-1.4-2.2-.3-.4.6-.9 1-1.1.8-.5 3.2-1.2 3.5.3 0 .3-.3.5-.1.7 0 0 .2.2.3.2.2-.2 2.4-2.8 3.3-4-.4-.1-.5-.2-.6-.3zm-7.4 2.2c.1-.1.2-.1 0 0-.3.2-.7.5-1 .8-.5-.9-1-1.8-1.6-2.7 1.2.5 2.4 1 3.5 1.5-.2 0-.5.2-.9.4zM82.6 33c-2.4-2-5.6-1.4-7.6.8-1.9 2.3-1.7 5.7.6 7.6 2.3 1.9 5.7 1.4 7.6-.8 1.9-2.3 1.8-5.7-.6-7.6zm-.3 6.6c-1.3 1.3-3.4.1-4.5-.7-1.1-.8-3.1-2.6-1.9-4.1 1.1-1.3 3.1-.2 4.2.5 1.2.8 3.4 2.6 2.3 4.2l-.1.1z" fill="#fff"></path>
    <path d="M82.6 33c1.2 1-.3-.2 0 0zm-.3 6.6l.1-.1-.1.1zM76 42.1c.1.1.3.2 0 0-2.9-2.2-6.3-1.6-8.5 1.1l-3 3.6c.4.5.8-.1 1.3.2.4.3 6.2 5.1 6.3 5.4.2.5-.3.5.1.9.2.1 4.5-5.2 4.9-6.2.9-1.8.3-3.8-1.1-5zm-1.3 6.8c-.2.3 0 .1-.7.7-.3.3-6.4-4.7-6.2-4.9.8-.9 2.6-1.6 3.6-1.3 2.2.4 5.2 3.1 3.3 5.5z" fill="#fff"></path>
    <path d="M50.6 57.5l.3-.4 27.6-32.3c-6.9.9-11.9 6.1-18.6 5-3.4-.6-3.5-2.5-4.5-4.5-.7-1.5-1.9-1.3-3.5-1.9-1.4-.6-2.3-1.7-5.2-1.1-2.5.6-2.8 4.5-6 4.3-1.7-.1-1.8-2.5-4.2-5.5-6.3-7.6-12.2-6.5-16.2.5l30.3 35.9z" fill="#491213"></path>
    <path d="M46.5 70.9l4.1-6.5 4 6.5-4 6.5-4.1-6.5z" fill="#23A9E1"></path>
    <path d="M23.3 32.3c.5.6.9 1.3.8 2.1-.1.6-.9 1.6-.3 1.8.7-.9 1.5-1.9 2.2-2.8-.6-.2-5.4-5.8-5.4-6.5-1.1.6-2.1 1.2-3.2 1.7.2.7 1.3 0 1.9 0 .8.1 1.4.6 2 1.2-1.7 1.4-5.9 5-6.4 5.1-.2 0-1.1-.6-1.1-.1 0 .3.9 1 1 1.2.7.9 1.5 1.8 2.2 2.7.6-.3-.1-.7.2-1.2.3-.4 4.9-4.3 6.1-5.2zm-5.3-7c.4-.1.6.4 1-.1-.8-1-1.6-1.9-2.4-2.9-.4-.4-.8-.9-.7 0 .1.6-6.1 5.7-6.5 5.8-.5.2-.8-.4-1.1.1.7.9 1.5 1.7 2.2 2.6.2.3.5.6.7.9.3.3.2-.7.2-.6-.1-.5.5-.9.9-1.2 1.5-1.3 5.3-4.6 5.7-4.6zm-8.8-.9c-1.8.5-3.7-.2-4.2-2s.6-3.8 2.1-4.8c1.4-1 3.6-1 4.4.8.3.8.2 1.7-.1 2.5-.2.5-.6 1 .1 1.3.9-1.1 1.7-2.2 2.6-3.3-1.1-.6-1.5-1.7-2.3-2.6-.9-1.1-2.1-2.1-3.5-2.3-2.9-.4-5.6 2.6-5.8 5.2-.1 1.5.4 2.8 1.2 4 .8 1 1.9 1.6 2.4 2.8.3.1 2.7-1 3.3-1.3-.1-.1-.1-.2-.2-.3 0 0-.7.2 0 0zm39.3 36.4c-1.2-.8-4-4.7-4.6-5.3-.1-.1-.2-.3-.3-.4 0 0-.3.2-.2.2-.2.1.1.6-.1.9-.8 1.2-5.8 5-6 5.2-.6.4-1.2-.2-1.5.3.7.9 2.8 3.5 3 3.6.5.1.1-.8.2-1 .1-.4 2.6-2.4 3.5-3.2.3-.3.7.4.9.7.3.5.5 1 .3 1.6-.1.4-.7.9-.3 1.2.6-.7 2.4-2.8 2.6-3 .3-.3-.6 0-.5-.1-.4.2-.7.2-1.1 0-.1-.1-1.1-1.1-1-1.2.4-.4 1-1 1.5-1.1.9-.2 1.6 1.5 1.7 2.1.1.6.1 1.2-.1 1.8-.1.4-.5.7 0 .9.7-1 1.4-1.9 2.1-2.9.2-.2 0-.3-.1-.3.2 0-.1-.1 0 0zm-10.2-4.2c2.2-1.9 2.5-5.1.8-7.3-1.9-2.5-5.4-3.1-7.8-1.1-2.2 1.9-2.5 5-.8 7.3 2 2.7 5.2 3 7.8 1.1-.1.1 1.2-.9 0 0zm-.5-4.7c-.6 1.5-2.2 3.1-3.7 3.7-1.8.7-3.1-.8-2.4-2.6.7-1.5 2.2-3.1 3.7-3.7 1.9-.7 3.1.9 2.4 2.6.1-.2-.4.9 0 0zM31.9 42c.5.1.9.5 1.3 0-.7-.9-1.5-1.8-2.2-2.6-.6.3 0 .5-.2 1-.2.4-2.6.8-3.2.9.2-.6.9-2.6 1.2-2.8.5-.4.9.4 1.3-.1l-2.7-3.3c-.3-.4-.6-1-1-.7 0 0 0 1.5-.1 1.7-.1.2-.9 3.6-1.9 4.5-.5.4-2.2 1.9-2.7 2.1-.5.2-.8-.6-1.2 0 .8 1 1.7 2 2.5 3 .1.1.6.9.8.9.5.1.1-.9.1-1.1.2-.4 2.5-2.7 3.5-2.9 1.2-.2 3-.7 4.5-.6-.4 0 .3.1 0 0z" fill="#fff"></path>
    <path d="M25.6 22.9c-4-.2-2.4-4 .4-4.8 2.6-.8 8.1 1.7 9.8 3.4-2.8.9-6.4.7-9.4.9-.2-3.2-1-2.1-.8.5zm1 4.8c-2-1.6-1.4-5.3 1.8-4.1 4 2.1-.9 3.2-1.8 4.1zm8.5 7.7c-8.6-.1-2.8-13.3.1-12.5 3.4 1.1 3 12.6-.1 12.5zm6.1-4.3c-.8 2.5-2.4 3-2.2-.1.2-3.5 2.5-2.7 4.9-4 2-1.1 3.1-5.2 6.6-2.8 1.6 1.1 3.4.2 3.9 1.8 0-.1-4.5 10.3-2 10.3-5 0-2.8-5.9-.9-9.9-1.8.9-4.8 6.7-2.4 7.6-1.3 1.7-5.2 3.9-7.2 2.3-1.5-1.1-.7-3.2-.7-5.2zm4.1 9.6c-3.5 1-8.1-1.2-2.5-2.3 3.5-.7 7.2.7 2.5 2.3.1 0-.1 0 0 0zm4.4-.1c-.7-1.7.6-3.6 2.7-2.2 1.8 1.2-.9 3.1-2.7 2.2zm-3 4.6c-2.4-.7-10.5-.6-5.2-2.8 1.7-.6 10.2.2 5.2 2.8zm3.2-.3c0-1-.5-2.7 1.4-1.9 2.2.8-1.4 2.6-1.4 1.9 0 0 0-.2 0 0zm7.3 3.6c-1.4-1.2-2.9-1.3-4.2 0-1.8-3.3-8.3-2.2-11.4-2.7 1.6 4.1 14.8 4.9 15.6 2.7zM55.3 51c-3.2-.1-6.7-.6-9.6.1 1.9.5 6.4 1.8 2.2 2.9 1.5 2.2 4 2 5.6.1-.7-.3-1-.7-1.6-1.1 1.6-.3 3.2-1.2 3.4-2zm3.6-3.9c-5.3-3.1-4-5.4.4-7.6 2.3-1.1 7.3-5.2 9.4-3.9-3.3 3.9-6.6 7.7-9.8 11.5z" fill="#DC6243"></path>
    <path d="M55.1 39.8c-4.5-4.6 6.7-4.2 8.5-5.8 1.3.4 10.8-8.3 13.1-7.7-1.7 1.9-5.2 8.1-7.8 8.1-2 0-4-.3-5.5 1.1-2.2 2.1-5.9 3.1-8.3 4.3z" fill="#F49774"></path>
    <path d="M56.6 34.2c-2.5 1.3-4.8-3.9-.5-3.4 2.8.3 5.7-.2 8.3.2-2 2.3-4.7 3.6-7.8 3.2z" fill="#F4B1A4"></path>
    <path d="M69.2 52.5c.2.6.3 1.3.2 2-.1.9-1 2.9-2.2 2.3-1.2-.6-2.2-1.7-3.2-2.6.8-.9 1.5-1.7 2.9-1.3.4.1.7 0 .3-.3-.4-.2-3.1-2-3.3-1.8-.3.3.5.9.2 1.5-.2.4-.6.8-.9 1.2-.7-.6-1.9-1.3-1.1-2.3.5-.7 1.3-1.2 2.1-1.3.6-.1 1.8.4 2-.2-1.1-.5-2.2-1-3.3-1.6.2.8-3.3 4.5-4.1 5.5-.1.1-.7.6-.7.8 0 .4.6.1.7.1.5-.2 6.8 5.1 7 5.5.1.3-.2.6 0 .7 0 0 .2.2.3.2.4-.5 4.5-6 5.4-6.2-.8-1.2-1.6-2.4-2.4-3.7-.6.3 0 1 .1 1.5zM63 59.2c-2.1-1.3-5.6 1.3-6.1 1.5-1 .5-1.8-.5-1.3-1.5.5-.8 1.4-1.2 2.3-1.3.3 0 1.3.2 1.5 0 .1-.2.2-.2 0-.3-.9-.6-1.7-1.2-2.6-1.7-.2 1.1-1.4 1.7-2.1 2.4-.8.9-1.5 1.9-1.5 3.2 0 1.1.7 2.1 1.7 2.7 1.1.6 2.3.1 3.3-.5.6-.4 1.3-.9 1.9-1.2 1-.5 2.3-.1 2 1.3-.3 1.1-1.4 2.1-2.4 2.3-.6.2-1.3.1-1.9-.1-.4-.1-1-.7-1.2-.1 1.2.8 2.3 1.7 3.5 2.5.1-.8.5-1.1 1.1-1.6.7-.6 1.4-1.3 2-2.1 1.2-1.7 1.6-4.1-.2-5.5zm0 0c1 .6-.6-.5 0 0zm36.7-39.6c-.7.7-8.4-2.3-9-2.8-.3-.1-.3-1.3-.7-.8l-1.2 1.5c-.4.5-.8 1-1.3 1.5-.3.3-.5.5 0 .7.8-.4 5.4 7.3 5 8.5-.7.4-6.9-5.1-7.1-5.4-.1-.1.3-1-.2-.9-.2 0-.7.9-.9 1.1-.3.4-.6.7-.9 1.1.3.5.5 0 1 0 .4.1 1.8 1.3 2.2 1.7-.7 0-2.7.1-2.9.1-.9.1-.4-.7-1-.9-.8.9-1.5 1.8-2.3 2.8-.4.5-.9 1.1-1.3 1.6-.1.1 0 0 0 .1.3.3.1.2.6 0s6.6 4.9 6.8 5.2c.4.4-.2 1 .4 1.2.6-.7 1.2-1.5 1.8-2.2.1-.1.1-.1 0-.2-.4-.4-.5.2-1 .2-.5-.1-4.4-3.4-5.9-4.6 1.8-.1 7.3-.3 8.2-.3.3 0 1.1.9 1.1 1.2-.1.4-.5.6.1.8.5-.6 1-1.1 1.5-1.7l.2-.3c.1-.1.1-.1.2-.3l.2-.2c.4-.5 1.8-2 1.6-2.1-.5-.4-.7.5-1.3-.1-.3-.2-1.2-1.8-1.4-2.2-.3-.4.6-.9 1-1.1.8-.5 3.2-1.2 3.5.3 0 .3-.3.5-.1.7 0 0 .2.2.3.2.2-.2 2.4-2.8 3.3-4-.3-.2-.4-.3-.5-.4zm-7.4 2.2c.1 0 .2-.1 0 0-.3.2-.7.5-1 .8-.5-.9-1-1.8-1.6-2.7 1.2.5 2.4 1 3.5 1.5-.2.1-.5.2-.9.4zM82.6 33c-2.4-2-5.6-1.4-7.6.8-1.9 2.3-1.7 5.7.6 7.6 2.3 1.9 5.7 1.4 7.6-.8 1.9-2.3 1.8-5.7-.6-7.6zm-.3 6.6s0 .1 0 0c-1.3 1.3-3.4.1-4.5-.7-1.1-.8-3.1-2.6-1.9-4.1 1.1-1.3 3.1-.2 4.2.5 1.2.8 3.4 2.6 2.3 4.2l-.1.1z" fill="#fff"></path>
    <path d="M82.6 33c1.2 1-.3-.2 0 0zm-.3 6.7c0-.1 0-.1 0 0l.1-.1c-.1 0-.1.1-.1.1zM76 42.1c.1.1.3.3 0 0-2.9-2.2-6.3-1.6-8.5 1.1l-3 3.6c.4.5.8-.1 1.3.2.4.3 6.2 5.1 6.3 5.4.2.5-.3.5.1.9.2.1 4.5-5.2 4.9-6.2.9-1.8.3-3.7-1.1-5zm-1.3 6.8c-.2.3 0 .1-.7.7-.3.3-6.4-4.7-6.2-4.9.8-.9 2.6-1.6 3.6-1.3 2.2.5 5.2 3.2 3.3 5.5z" fill="#fff"></path>
  </symbol>
  <symbol xmlns="http://www.w3.org/2000/svg" viewBox="0 0 102 84" id="logotype-tablet">
    <path d="M1 .7l49.6 58.4 49.3-58L1 .7z" fill="#23A9E1"></path>
    <path d="M79.8 17.3c-5.1 0-10.1.1-15.2.1 6-6.9 8.7-6.2 15.2-.1zm-41.2 5.4h26.7c-2-1.2-6.7-7.1-9.3-4.9-.2.2-7.5-8.9-12.3-4.5-4.2 3.8-6.1-.5-10.9 2.5-5.3 3.6 3.2 5.7 5.8 6.9z" fill="#fff"></path>
    <path d="M50.9 0H0v22.5L50.6 84l.3-.4 50.7-60.4V0H50.9zm0 57.1l-.3.4L3.7 1.8h94.4L50.9 57.1z" fill="#491213"></path>
    <path d="M50.6 57.5l.3-.4 27.6-32.3c-6.9.9-11.9 6.1-18.6 5-3.4-.6-3.5-2.5-4.5-4.5-.7-1.5-1.9-1.3-3.5-1.9-1.4-.6-2.3-1.7-5.2-1.1-2.5.6-2.8 4.5-6 4.3-1.7-.1-1.8-2.5-4.2-5.5-6.3-7.6-12.2-6.5-16.2.5l30.3 35.9z" fill="#491213"></path>
    <path d="M46.5 70.9l4.1-6.5 4 6.5-4 6.5-4.1-6.5z" fill="#23A9E1"></path>
    <path d="M23.3 32.3c.5.6.9 1.3.8 2.1-.1.6-.9 1.6-.3 1.8.7-.9 1.5-1.9 2.2-2.8-.6-.2-5.4-5.8-5.4-6.5-1.1.6-2.1 1.2-3.2 1.7.2.7 1.3 0 1.9 0 .8.1 1.4.6 2 1.2-1.7 1.4-5.9 5-6.4 5.1-.2 0-1.1-.6-1.1-.1 0 .3.9 1 1 1.2.7.9 1.5 1.8 2.2 2.7.6-.3-.1-.7.2-1.2.3-.4 4.9-4.3 6.1-5.2zm-5.3-7c.4-.1.6.4 1-.1-.8-1-1.6-1.9-2.4-2.9-.4-.4-.8-.9-.7 0 .1.6-6.1 5.7-6.5 5.8-.5.2-.8-.4-1.1.1.7.9 1.5 1.7 2.2 2.6.2.3.5.6.7.9.3.3.2-.7.2-.6-.1-.5.5-.9.9-1.2 1.5-1.3 5.3-4.6 5.7-4.6zm-8.8-.9c-1.8.5-3.7-.2-4.2-2s.6-3.8 2.1-4.8c1.4-1 3.6-1 4.4.8.3.8.2 1.7-.1 2.5-.2.5-.6 1 .1 1.3.9-1.1 1.7-2.2 2.6-3.3-1.1-.6-1.5-1.7-2.3-2.6-.9-1.1-2.1-2.1-3.5-2.3-2.9-.4-5.6 2.6-5.8 5.2-.1 1.5.4 2.8 1.2 4 .8 1 1.9 1.6 2.4 2.8.3.1 2.7-1 3.3-1.3-.1-.1-.1-.2-.2-.3-.7.2 0 0 0 0zm39.3 36.4c-1.2-.8-4-4.7-4.6-5.3-.1-.1-.2-.3-.3-.4 0 0-.3.2-.2.2-.2.1.1.6-.1.9-.8 1.2-5.8 5-6 5.2-.6.4-1.2-.2-1.5.3.7.9 2.8 3.5 3 3.6.5.1.1-.8.2-1 .1-.4 2.6-2.4 3.5-3.2.3-.3.7.4.9.7.3.5.5 1 .3 1.6-.1.4-.7.9-.3 1.2.6-.7 2.4-2.8 2.6-3 .3-.3-.6 0-.5-.1-.4.2-.7.2-1.1 0-.1-.1-1.1-1.1-1-1.2.4-.4 1-1 1.5-1.1.9-.2 1.6 1.5 1.7 2.1.1.6.1 1.2-.1 1.8-.1.4-.5.7 0 .9.7-1 1.4-1.9 2.1-2.9.2-.2 0-.3-.1-.3-.1-.1.2 0 0 0zm-10.2-4.2c2.2-1.9 2.5-5.1.8-7.3-1.9-2.5-5.4-3.1-7.8-1.1-2.2 1.9-2.5 5-.8 7.3 2 2.7 5.2 3 7.8 1.1 1.2-.9-.1.1 0 0zm-.5-4.7c-.6 1.5-2.2 3.1-3.7 3.7-1.8.7-3.1-.8-2.4-2.6.7-1.5 2.2-3.1 3.7-3.7 1.9-.7 3.1.9 2.4 2.6-.4.9.1-.2 0 0zM31.9 42c.5.1.9.5 1.3 0-.7-.9-1.5-1.8-2.2-2.6-.6.3 0 .5-.2 1-.2.4-2.6.8-3.2.9.2-.6.9-2.6 1.2-2.8.5-.4.9.4 1.3-.1l-2.7-3.3c-.3-.4-.6-1-1-.7 0 0 0 1.5-.1 1.7-.1.2-.9 3.6-1.9 4.5-.5.4-2.2 1.9-2.7 2.1-.5.2-.8-.6-1.2 0 .8 1 1.7 2 2.5 3 .1.1.6.9.8.9.5.1.1-.9.1-1.1.2-.4 2.5-2.7 3.5-2.9 1.2-.2 3-.7 4.5-.6.3.1-.4 0 0 0z" fill="#fff"></path>
    <path d="M25.6 22.9c-4-.2-2.4-4 .4-4.8 2.6-.8 8.1 1.7 9.8 3.4-2.8.9-6.4.7-9.4.9-.2-3.2-1-2.1-.8.5zm1 4.8c-2-1.6-1.4-5.3 1.8-4.1 4 2.1-.9 3.2-1.8 4.1zm8.5 7.7c-8.6-.1-2.8-13.3.1-12.5 3.4 1.1 3 12.6-.1 12.5zm6.1-4.3c-.8 2.5-2.4 3-2.2-.1.2-3.5 2.5-2.7 4.9-4 2-1.1 3.1-5.2 6.6-2.8 1.6 1.1 3.4.2 3.9 1.8 0-.1-4.5 10.3-2 10.3-5 0-2.8-5.9-.9-9.9-1.8.9-4.8 6.7-2.4 7.6-1.3 1.7-5.2 3.9-7.2 2.3-1.5-1.1-.7-3.2-.7-5.2zm4.1 9.6c-3.5 1-8.1-1.2-2.5-2.3 3.5-.7 7.2.7 2.5 2.3.1 0-.1 0 0 0zm4.4-.1c-.7-1.7.6-3.6 2.7-2.2 1.8 1.2-.9 3.1-2.7 2.2zm-3 4.6c-2.4-.7-10.5-.6-5.2-2.8 1.7-.6 10.2.2 5.2 2.8zm3.2-.3c0-1-.5-2.7 1.4-1.9 2.2.8-1.4 2.6-1.4 1.9 0 0 0-.2 0 0zm7.3 3.6c-1.4-1.2-2.9-1.3-4.2 0-1.8-3.3-8.3-2.2-11.4-2.7 1.6 4.1 14.8 4.9 15.6 2.7zM55.3 51c-3.2-.1-6.7-.6-9.6.1 1.9.5 6.4 1.8 2.2 2.9 1.5 2.2 4 2 5.6.1-.7-.3-1-.7-1.6-1.1 1.6-.3 3.2-1.2 3.4-2zm3.6-3.9c-5.3-3.1-4-5.4.4-7.6 2.3-1.1 7.3-5.2 9.4-3.9-3.3 3.9-6.6 7.7-9.8 11.5z" fill="#DC6243"></path>
    <path d="M55.1 39.8c-4.5-4.6 6.7-4.2 8.5-5.8 1.3.4 10.8-8.3 13.1-7.7-1.7 1.9-5.2 8.1-7.8 8.1-2 0-4-.3-5.5 1.1-2.2 2.1-5.9 3.1-8.3 4.3z" fill="#F49774"></path>
    <path d="M56.6 34.2c-2.5 1.3-4.8-3.9-.5-3.4 2.8.3 5.7-.2 8.3.2-2 2.3-4.7 3.6-7.8 3.2z" fill="#F4B1A4"></path>
    <path d="M69.2 52.5c.2.6.3 1.3.2 2-.1.9-1 2.9-2.2 2.3-1.2-.6-2.2-1.7-3.2-2.6.8-.9 1.5-1.7 2.9-1.3.4.1.7 0 .3-.3-.4-.2-3.1-2-3.3-1.8-.3.3.5.9.2 1.5-.2.4-.6.8-.9 1.2-.7-.6-1.9-1.3-1.1-2.3.5-.7 1.3-1.2 2.1-1.3.6-.1 1.8.4 2-.2-1.1-.5-2.2-1-3.3-1.6.2.8-3.3 4.5-4.1 5.5-.1.1-.7.6-.7.8 0 .4.6.1.7.1.5-.2 6.8 5.1 7 5.5.1.3-.2.6 0 .7 0 0 .2.2.3.2.4-.5 4.5-6 5.4-6.2-.8-1.2-1.6-2.4-2.4-3.7-.6.3 0 1 .1 1.5zM63 59.2c-2.1-1.3-5.6 1.3-6.1 1.5-1 .5-1.8-.5-1.3-1.5.5-.8 1.4-1.2 2.3-1.3.3 0 1.3.2 1.5 0 .1-.2.2-.2 0-.3-.9-.6-1.7-1.2-2.6-1.7-.2 1.1-1.4 1.7-2.1 2.4-.8.9-1.5 1.9-1.5 3.2 0 1.1.7 2.1 1.7 2.7 1.1.6 2.3.1 3.3-.5.6-.4 1.3-.9 1.9-1.2 1-.5 2.3-.1 2 1.3-.3 1.1-1.4 2.1-2.4 2.3-.6.2-1.3.1-1.9-.1-.4-.1-1-.7-1.2-.1 1.2.8 2.3 1.7 3.5 2.5.1-.8.5-1.1 1.1-1.6.7-.6 1.4-1.3 2-2.1 1.2-1.7 1.6-4.1-.2-5.5zm0 0c1 .6-.6-.5 0 0zm36.7-39.6c-.7.7-8.4-2.3-9-2.8-.3-.1-.3-1.3-.7-.8l-1.2 1.5c-.4.5-.8 1-1.3 1.5-.3.3-.5.5 0 .7.8-.4 5.4 7.3 5 8.5-.7.4-6.9-5.1-7.1-5.4-.1-.1.3-1-.2-.9-.2 0-.7.9-.9 1.1-.3.4-.6.7-.9 1.1.3.5.5 0 1 0 .4.1 1.8 1.3 2.2 1.7-.7 0-2.7.1-2.9.1-.9.1-.4-.7-1-.9-.8.9-1.5 1.8-2.3 2.8-.4.5-.9 1.1-1.3 1.6-.1.1 0 0 0 .1.3.3.1.2.6 0s6.6 4.9 6.8 5.2c.4.4-.2 1 .4 1.2.6-.7 1.2-1.5 1.8-2.2.1-.1.1-.1 0-.2-.4-.4-.5.2-1 .2-.5-.1-4.4-3.4-5.9-4.6 1.8-.1 7.3-.3 8.2-.3.3 0 1.1.9 1.1 1.2-.1.4-.5.6.1.8.5-.6 1-1.1 1.5-1.7l.2-.3c.1-.1.1-.1.2-.3l.2-.2c.4-.5 1.8-2 1.6-2.1-.5-.4-.7.5-1.3-.1-.3-.2-1.2-1.8-1.4-2.2-.3-.4.6-.9 1-1.1.8-.5 3.2-1.2 3.5.3 0 .3-.3.5-.1.7 0 0 .2.2.3.2.2-.2 2.4-2.8 3.3-4-.3-.2-.4-.3-.5-.4zm-7.4 2.2c.1 0 .2-.1 0 0-.3.2-.7.5-1 .8-.5-.9-1-1.8-1.6-2.7 1.2.5 2.4 1 3.5 1.5-.2.1-.5.2-.9.4zM82.6 33c-2.4-2-5.6-1.4-7.6.8-1.9 2.3-1.7 5.7.6 7.6 2.3 1.9 5.7 1.4 7.6-.8 1.9-2.3 1.8-5.7-.6-7.6zm-.3 6.6s0 .1 0 0c-1.3 1.3-3.4.1-4.5-.7-1.1-.8-3.1-2.6-1.9-4.1 1.1-1.3 3.1-.2 4.2.5 1.2.8 3.4 2.6 2.3 4.2l-.1.1z" fill="#fff"></path>
    <path d="M82.6 33c1.2 1-.3-.2 0 0zm-.3 6.7c0-.1 0-.1 0 0l.1-.1c-.1 0-.1.1-.1.1zM76 42.1c.1.1.3.3 0 0-2.9-2.2-6.3-1.6-8.5 1.1l-3 3.6c.4.5.8-.1 1.3.2.4.3 6.2 5.1 6.3 5.4.2.5-.3.5.1.9.2.1 4.5-5.2 4.9-6.2.9-1.8.3-3.7-1.1-5zm-1.3 6.8c-.2.3 0 .1-.7.7-.3.3-6.4-4.7-6.2-4.9.8-.9 2.6-1.6 3.6-1.3 2.2.5 5.2 3.2 3.3 5.5z" fill="#fff"></path>
  </symbol>
  <symbol xmlns="http://www.w3.org/2000/svg" viewBox="0 0 229 39" id="back-text--inner">
    <path d="M27.32 26.64c0 .25-.05.45-.05.65-.26 2.01-.9 3.97-1.96 5.78a11.46 11.46 0 01-4.26 4.22c-.65.3-1.35.55-2.05.8-.7.2-1.4.4-2.1.56-.61.1-1.16.2-1.76.25-.6.05-1.16.1-1.7.1h-.6c-2.31-.1-4.62-.6-6.88-1.56-2.2-1-4.2-2.26-5.96-3.87l4.66-7.49.1.1.1.1a24.24 24.24 0 003.56 3.22c1.3.96 2.86 1.5 4.56 1.61.05 0 .1 0 .15.05.05 0 .1.05.15.05.05 0 .1 0 .15.05.05 0 .1.05.15.05.15 0 .3 0 .5-.05.15 0 .35-.05.5-.1a4.77 4.77 0 003.06-2.01c.05-.1.1-.15.1-.25.05-.1.1-.15.1-.25.1-.25.15-.5.15-.76.05-.25.05-.45.05-.65 0-1.06-.45-1.96-1.35-2.66-.9-.7-1.9-1.26-2.96-1.66-.45-.15-.85-.3-1.2-.4-.4-.1-.75-.2-1.1-.26-.05 0-.1 0-.1-.05-.05 0-.1-.05-.1-.05-1.9-.45-3.71-1.2-5.37-2.26a8.17 8.17 0 01-3.75-5.68c-.1-.45-.16-.85-.2-1.35-.06-.15-.06-.3-.06-.46v-.45c0-.3 0-.6.05-.95 0-.3.05-.6.15-.96.1-.75.3-1.56.6-2.31.26-.75.6-1.46 1.06-2.11A10.98 10.98 0 018.52 1.2C10.37.45 12.43 0 14.53 0c.5 0 1 .05 1.56.1.5.05 1.05.15 1.6.2 1.4.25 2.8.6 4.16 1.16 1.36.55 2.66 1.2 3.81 1.9l-3.2 7.2a28 28 0 00-3.31-2.07 7.95 7.95 0 00-3.76-.85h-.5c-.9.1-1.7.5-2.51 1.2-.75.7-1.15 1.41-1.15 2.22 0 .1 0 .25.05.35 0 .1.05.25.15.35.1.25.2.5.4.75.2.26.4.46.65.66.45.35 1.05.65 1.85.95.8.3 1.66.56 2.56.86.75.2 1.45.4 2.16.55.7.15 1.3.35 1.75.5a9.08 9.08 0 014.91 3.87c1.1 1.81 1.66 3.72 1.7 5.73v.25c-.04.25-.04.5-.1.76zm30.07 3.11v8.35H34.63V.9H57.4v8.15H44.6v6.48h12.03v7.94H44.6v6.28h12.78zm38.39-1.45a15.79 15.79 0 01-5.16 6.28 16.31 16.31 0 01-5.92 2.56c-2.15.45-4.3.75-6.46.85-.6.06-1.26.06-1.86.06H64.45V.85h12.58a36.98 36.98 0 017.97.9c2.06.46 3.91 1.32 5.62 2.57a15.28 15.28 0 015.06 6.03c1.2 2.52 1.9 5.08 2.05 7.7.05.24.05.44.05.7v1.5c-.15 2.82-.8 5.48-2 8.05zm-8.22-9.2c0-.15 0-.3-.05-.45-.1-1.46-.45-2.92-1.05-4.28a8.44 8.44 0 00-2.56-3.31c-.8-.66-1.7-1.1-2.7-1.36-1-.25-2.01-.35-3.06-.4h-3.76v20.5c.1 0 .25 0 .4.05.15 0 .25.05.4.05.15 0 .3 0 .4.05.1 0 .25.05.35.05.4 0 .8 0 1.2-.05.46 0 .86-.05 1.2-.1 1.01-.1 2.01-.25 2.97-.5.95-.25 1.85-.7 2.6-1.2a7.85 7.85 0 002.76-3.67c.6-1.56.9-3.17.9-4.83v-.55zm54.93 1.96c0 .4-.05.8-.15 1.2-.1.8-.2 1.61-.45 2.42a18.88 18.88 0 01-8.42 11.16 20.93 20.93 0 01-10.88 3.11c-.25 0-.55 0-.8-.05-.25 0-.5-.05-.8-.05a21.3 21.3 0 01-7.67-2.16 18.93 18.93 0 01-7.67-7.34 19.39 19.39 0 01-2.8-9.9c0-.5 0-1 .05-1.5.05-.51.1-1.06.25-1.57.2-1 .45-2 .8-3.06.35-1 .75-2.01 1.3-2.97a18.44 18.44 0 017.47-7.59A20.26 20.26 0 01124.1.2c.5.05.95.1 1.4.1a21.14 21.14 0 018.32 3.02 18.33 18.33 0 016.42 7.13 20.36 20.36 0 012.25 9.3v1.3zm-10.12-2.11c0-.25-.05-.46-.05-.7-.2-1.66-.7-3.27-1.5-4.83a9 9 0 00-3.36-3.62c-.4-.2-.76-.35-1.16-.5-.4-.15-.75-.3-1.15-.4-.4-.1-.75-.16-1.15-.2a8.87 8.87 0 00-6.62 1.76 9.88 9.88 0 00-3.5 4.97c-.06.1-.06.15-.1.25 0 .1-.06.15-.06.25l-.3 1.06c-.1.35-.15.75-.25 1.15-.05.25-.05.56-.1.8 0 .26-.05.51-.05.81v.45c0 .15 0 .3.05.46.1 2.06.75 4.02 1.9 5.88a8.08 8.08 0 004.77 3.66c.25.1.45.16.7.2l.75.16c.25.05.45.05.7.1.25 0 .45.05.7.05 2.06 0 3.91-.6 5.57-1.86a9.9 9.9 0 003.86-6.13c.1-.46.15-.86.2-1.31.05-.25.05-.55.1-.8 0-.26.05-.5.05-.76v-.9zm43.85 19.15l-14.08-19.2c-.4-.46-.75-1-1.1-1.66-.35-.65-.7-1.3-1-2.01-.26-.5-.46-1-.66-1.51a18 18 0 00-.6-1.36 42.83 42.83 0 01.6 7.4V38.1h-9.77V.9h9.77L173.37 20c.35.56.7 1.1 1 1.71.35.6.65 1.2.95 1.86.25.5.45 1 .7 1.5.25.51.45 1.01.7 1.47l-.15-1.21-.15-1.2a18.2 18.2 0 01-.15-2.42c-.05-.8-.05-1.66-.05-2.51V.95h9.73v37.2h-9.73v-.05zm42.66 0l-1.86-6.69H202.7l-1.9 6.74h-10.03L203.49.95h12.63L229 38.15h-10.12v-.05zm-7.78-26.2c-.2-.6-.4-1.2-.55-1.86l-.46-1.9c-.1-.26-.15-.46-.15-.66-.05-.2-.1-.4-.1-.6l-.15.6-.15.65c-.05.1-.05.15-.05.2 0 .05 0 .15-.05.2-.1.6-.25 1.16-.4 1.71l-.45 1.66-3.76 12.31h10.08l-3.81-12.3z" fill="#fff"></path>
  </symbol>
  <symbol xmlns="http://www.w3.org/2000/svg" viewBox="0 0 282 214" id="back-text-index">
    <path d="M101.39 42.8l-.13.13a3.83 3.83 0 01-2.76 1.34l1.72-3c1.1-1.89.06-3.72-1.66-3.72-1.41 0-2.51.55-3.56 2.38l-.92 1.59-.73 1.28-.13.13c-1.35 1.53-2.64 2.75-3.43 2.75-.43 0-.62-.3-.19-.98l3.93-6.85H95l.55-.85h-1.53l1.72-3H93.9l-1.72 3h-1.66l-.55.85h1.66l-3.69 6.36c-.8 1.35-.24 2.63 1.23 2.63 1.05 0 2.27-.8 3.38-1.9 0 2.33 3.25 2.82 5.21.31h.43c1.1 0 2.83-.67 3.75-1.77 0-.3-.31-.55-.55-.68zm-3.93.13h-.06a1.1 1.1 0 00-.92 1.7v.07c-.86 1.47-2.95 1.22-1.9-.73l1.4-2.39.86-1.47c1.3-2.2 3.07-1.34 1.97.55l-1.35 2.27zm29.39-.13l-.12.13c-1.35 1.53-3 2.75-4.3 2.75-1.1 0-1.77-.74-.98-2.2l.19-.3c1.16.48 3.43.24 4.78-2.15l.25-.43c.98-1.7.06-2.93-1.47-2.93-1.48 0-2.64.8-3.44 2.14l-1.78 3.06-.12.12c-1.35 1.53-2.64 2.75-3.44 2.75-.43 0-.61-.3-.18-.98l2.64-4.65c.8-1.4.06-2.38-.99-2.38-.8 0-1.65.43-2.57 1.4l2.94-5.07h-1.84l-5.1 8.74-.12.13c-1.35 1.53-2.64 2.75-3.43 2.75-.43 0-.62-.3-.19-.98l3.93-6.85h1.47l.56-.86H112l1.72-3h-1.84l-1.72 3h-1.66l-.55.86h1.66l-3.68 6.36c-.8 1.35-.25 2.63 1.22 2.63.74 0 1.54-.37 2.34-.98l-.5.8h1.85l2.76-4.83c2.82-3.55 4.05-3.06 3.31-1.72l-2.4 4.16c-.79 1.35-.24 2.63 1.24 2.63 1.1 0 2.33-.85 3.43-1.96.06 1.17 1.05 1.96 2.52 1.96 2.08 0 4.17-1.59 5.64-3.36.07-.37-.24-.61-.49-.74zm-3.5-2.56c1.05-1.84 2.95-1.53 1.85.36l-.25.43c-.86 1.47-2.09 1.47-2.76 1.22l1.17-2.01zm70.46 2.56l-.12.13c-.68.8-1.48 1.46-2.21 2.01.61-1.77.43-4.4 1.6-6.78l-1.36-.74c-.73 1.04-2.39 3.43-4.1 5.38l-.13.13c-1.35 1.53-2.64 2.75-3.44 2.75-.43 0-.61-.3-.18-.98l3.92-6.85h-1.84l-3.25 5.69c-1.41 1.28-2.45 1.95-2.82 1.83-.43-.18 0-.85.24-1.28l3.56-6.24h-1.84l-2.88 4.95-.13.13a3.83 3.83 0 01-2.76 1.34l1.72-3c1.1-1.89.06-3.72-1.66-3.72-1.4 0-2.51.55-3.56 2.38l-.91 1.59-.74 1.28-.12.13c-1.36 1.53-3.01 2.75-4.3 2.75-1.1 0-1.78-.74-.98-2.2l.18-.3c1.17.48 3.44.24 4.79-2.15l.24-.43c.99-1.7.07-2.93-1.47-2.93-1.47 0-2.64.8-3.44 2.14l-1.78 3.06-.12.12c-1.53 1.77-2.82 2.87-4.3 3.48l4.12-7.03h-1.1c0-.73-.8-1.77-1.9-1.77-1 0-2.4.8-3.14 2.14l-1.78 3.06-.12.12c-1.35 1.53-2.64 2.75-3.44 2.75-.43 0-.61-.3-.18-.98l1.84-3.18c.61-1.1.3-1.77-.25-2.5l-1.04-1.23c-.25-.3-.25-.73.12-1.04l-.98-1.04c-1.04.92-1.1 1.96-.49 2.82l.18.18a45.9 45.9 0 01-3.13 4.1l-.12.12a3.83 3.83 0 01-2.76 1.34l1.72-3c1.1-1.89.06-3.72-1.66-3.72-1.41 0-2.52.55-3.56 2.38l-.92 1.6-.74 1.28-.12.12c-1.53 1.77-2.82 2.87-4.3 3.48l4.12-7.03h-1.1c0-.73-.8-1.77-1.91-1.77-.98 0-2.4.8-3.13 2.14l-2.58 4.46c-.8 1.35-.24 2.63 1.23 2.63.5 0 1.1-.24 1.78-.61l-.5.86c-2.45.73-4.04 1.77-4.04 3.11 0 1.78 2.7 2.14 4.05-.12l1.41-2.38a11.4 11.4 0 004.42-2.75c0 2.32 3.25 2.8 5.22.3h.42c1.11 0 2.83-.67 3.75-1.77.86-1.04 1.6-1.96 3.07-3.92l.24.31c.25.3.31.67.13 1.04l-1.97 3.36c-.8 1.35-.24 2.63 1.23 2.63.92 0 1.96-.6 2.94-1.47 0 .86.56 1.47 1.6 1.47.5 0 1.1-.24 1.78-.6l-.43.72c-2.45.74-4.05 1.78-4.05 3.12 0 1.78 2.7 2.14 4.05-.12l1.41-2.38a11.79 11.79 0 004.48-2.82c.06 1.17.98 1.96 2.52 1.96 1.47 0 3-.86 4.23-1.96-.06 2.39 3.26 2.88 5.22.37h.43a4.6 4.6 0 002.03-.55c-.5 1.28-.07 2.14.98 2.14.98 0 2.14-.92 3-1.77-.18.98.43 1.77 1.6 1.77 1.53 0 3.25-1.59 4.79-3.36 1.04-1.23 1.96-2.51 2.64-3.37-.74 1.9-.31 5.32-2.1 5.32-.6 0-.85-.67-.85-.67l-1.17.61s.31 1.47 2.03 1.47c.18 0 .3 0 .49-.06h.06c1.9-.25 3.75-1.71 5.1-3.3a.94.94 0 00-.68-.68zm-26.33-2.56c1.05-1.84 2.95-1.53 1.84.36l-.24.43c-.86 1.47-2.09 1.47-2.77 1.22l1.17-2.01zm-35.1 9.54c-.37.67-.98.6-.98.06 0-.5.42-1.04 1.84-1.6l-.86 1.54zm.86-4.1c-.43 0-.62-.3-.19-.98l2.58-4.46c.98-1.72 2.95-1.29 2.03.36l-1.42 2.45c-1.1 1.77-2.27 2.63-3 2.63zm11.29-2.75h-.06a1.1 1.1 0 00-.92 1.7v.07c-.86 1.47-2.95 1.22-1.9-.73l1.4-2.39.86-1.47c1.3-2.2 3.07-1.34 1.97.55l-1.35 2.27zm11.54 6.85c-.37.67-.98.6-.98.06 0-.5.42-1.04 1.84-1.6l-.86 1.54zm.86-4.1c-.43 0-.62-.3-.19-.98l2.58-4.46c.98-1.72 2.94-1.29 2.02.36l-1.4 2.45c-1.11 1.77-2.28 2.63-3.01 2.63zm18.1-2.75h-.06a1.1 1.1 0 00-.92 1.7v.07c-.86 1.47-2.95 1.22-1.9-.73l1.4-2.39.87-1.47c1.29-2.2 3.07-1.34 1.96.55l-1.35 2.27zm-95.19-2.08H62.11v1.22h17.73v-1.22zm139.32 0h-17.74v1.22h17.74v-1.22z" fill="#766458"></path>
    <path d="M100.03 0h4.73l-.74 27.46h-8.9L93.9 16.14l-1.23 11.32h-8.96L83.04 0h4.66l.37 22.75h.49l3-22.75h4.67l3 22.75h.5l.3-22.75zm19.52 22.75v4.77h-12.83V0h12.83v4.7h-8.16v6.61h6.5v4.71h-6.5v6.67h8.16v.06zm13.13 0v4.77h-11.23V0h4.67v22.75h6.56zm9.95-5.38l4.72-1.1v8.31a2.92 2.92 0 01-2.88 2.88h-7.06a2.92 2.92 0 01-2.88-2.88V2.88A2.88 2.88 0 01137.4 0h7.06a2.92 2.92 0 012.88 2.87v5.57l-4.72 1.1v-4.9h-3.38V22.7h3.38v-5.32zM160.12 0A2.92 2.92 0 01163 2.87v21.65a2.92 2.92 0 01-2.88 2.87h-7.06a2.92 2.92 0 01-2.88-2.87V2.87A2.88 2.88 0 01153.06 0h7.06zm-1.84 4.7h-3.38v18.05h3.38V4.7zM178.34 0h4.67v27.46h-4.67V13.94l-1.9 6.97h-4.6L170 13.94v13.52h-4.67V0H170l4.17 13.27L178.34 0zm19.83 22.75v4.77h-12.83V0h12.83v4.7H190v6.61h6.5v4.71H190v6.67h8.16v.06z" fill="#81B3D3"></path>
    <path d="M27.19 96.37a12.52 12.52 0 00-7.92-3.06c-2.2 0-5.1 1.29-5.1 3.86 0 2.69 3.26 3.73 5.28 4.34l3.07.92c6.39 1.9 11.36 5.07 11.36 12.47 0 4.52-1.1 9.23-4.73 12.3-3.62 3.05-8.4 4.27-13 4.27A28.64 28.64 0 010 126.27l4.97-9.47c3 2.63 6.5 4.7 10.62 4.7 2.82 0 5.77-1.4 5.77-4.58 0-3.36-4.67-4.47-7.24-5.2-7.5-2.2-12.4-4.1-12.4-12.96 0-9.3 6.63-15.35 15.83-15.35 4.6 0 10.31 1.47 14.36 3.79l-4.72 9.17zm29.03-1.71v7.64h13.44v10.1H56.22v7.88h14.23v10.1H44.31V84.62h26.14v10.1l-14.23-.07zM79.3 84.63h16.93c12.77 0 23.32 10.03 23.32 22.87 0 12.84-10.62 22.87-23.32 22.87H79.29V84.63zm11.96 35.65h2.7c7.12 0 13.2-3.91 13.2-12.78 0-8.2-5.4-12.78-13.08-12.78h-2.82v25.56zm84.69-13.64c0 14.8-10.68 25.26-25.4 25.26-14.74 0-25.41-10.46-25.41-25.26 0-13.81 12.2-23.54 25.4-23.54s25.41 9.73 25.41 23.55zm-38.42.07c0 7.89 5.83 13.63 12.95 13.63 7.12 0 12.95-5.75 12.95-13.63 0-6.3-5.83-12.11-12.95-12.11-7.06 0-12.95 5.8-12.95 12.1zm44.74-22.08h11.97l21.85 28h.12v-28h11.97v45.74H216.2l-21.85-28.07h-.12v28.07h-11.97V84.63zm67.57 37.79l-3.19 7.95h-12.64l17.67-45.74h13.01L282 130.37h-12.7l-3.01-7.95h-16.45zm8.35-23.66h-.13l-4.9 14.55h9.94l-4.91-14.55zM66.22 175.93c4.73-1.6 5.03-7.46.43-7.46-1.29 0-2.82.91-3.87 2.69l-6.26 10.82c-.3.49-.55.92-.92 1.34-1.6-2.2-1.16-5.5 1.1-6.97l-.91-1.16c-4.91 3.12-3.44 12.05 4.72 12.05 6.94 0 10.19-8.32 5.71-11.31zm-5.77 9.53c-1.41 0-2.45-.3-3.37-.79.42-.49.8-1.04 1.16-1.65l3.93-6.79.61.06c5.46 1.17 3.32 9.18-2.33 9.18zm2.52-10.57l1.9-3.24c1.72-2.94 3.87-1.23 2.7.97-.92 1.72-2.21 2.2-4.6 2.27z" fill="#fff"></path>
    <path d="M85.92 183.45c-.37 1.34.37 2.5 1.9 2.5.92 0 2.09-.6 3.25-1.52.13.91.86 1.53 2.03 1.53 1.23 0 2.58-.86 3.93-2.08-.25 1.22.3 2.08 1.47 2.08 1.29 0 2.7-1.17 3.8-2.2-.24 1.22.5 2.2 1.97 2.2 1.9 0 4.11-2.08 6.08-4.28 0-.07-.07-.07-.07-.13 1.3-1.47 2.4-3.06 3.26-4.16-.92 2.39-.43 6.73-2.64 6.73-.8 0-1.1-.86-1.1-.86l-1.48.74s.43 1.9 2.58 1.9c.24 0 .43 0 .67-.07h.06c1.72-.24 3.38-1.28 4.85-2.57.06 1.53 1.23 2.63 3.13 2.63 2.64 0 5.28-2.07 7.18-4.28-.18-.3-.55-.67-.86-.8l-.18.2c-1.66 1.95-3.8 3.48-5.46 3.48-1.41 0-2.27-.92-1.23-2.75l.25-.43c1.47.6 4.3.3 6.07-2.7l.3-.54c1.23-2.14.07-3.73-1.83-3.73-1.9 0-3.38.97-4.36 2.69l-2.27 3.85h-.06l-.19.18c-.86.98-1.9 1.9-2.82 2.51.74-2.2.55-5.63 2.03-8.56l-1.72-.92c-.98 1.35-3.07 4.34-5.16 6.79l.06.06-.06.12c-1.66 1.96-3.31 3.49-4.36 3.49-.49 0-.8-.37-.24-1.29l4.97-8.68h-2.33l-4.11 7.22c-1.78 1.59-3.13 2.5-3.56 2.32-.56-.24 0-1.1.3-1.59l4.55-7.89h-2.34L98.5 181c-.06-.06-.12-.06-.18-.12l-.19.18c-1.65 1.96-3.31 3.49-4.35 3.49-.5 0-.8-.37-.25-1.29l3.74-6.54h-1.35c.06-.98-.92-2.32-2.45-2.32-1.23 0-3 .98-4 2.69l-2.32 4.03c-.13-.12-.25-.18-.37-.24l-.19.18c-1.65 1.96-3.8 3.49-5.46 3.49-1.4 0-2.27-.92-1.22-2.75l2.39-4.16c1.35-2.32 3.74-1.9 2.33.49l-.3.55h1.9l.3-.55c1.23-2.14.06-3.73-1.84-3.73-1.9 0-3.37.98-4.36 2.69L78 181.06c-.06-.06-.12-.06-.18-.12l-.19.19c-1.65 1.95-3.8 3.48-5.46 3.48-1.4 0-2.27-.92-1.22-2.75l.24-.43c1.47.61 4.3.3 6.08-2.69l.3-.55c1.23-2.14.06-3.73-1.84-3.73-1.9 0-3.37.98-4.36 2.69l-2.45 4.16c-1.47 2.44-.18 4.77 2.58 4.77 2.02 0 4.1-1.23 5.77-2.82-.07 1.6 1.16 2.82 3.13 2.82 1.96-.13 3.86-1.23 5.52-2.63zm35.6-5.87c1.34-2.33 3.74-1.9 2.33.49l-.31.55c-1.1 1.9-2.64 1.83-3.5 1.53l1.47-2.57zm-33.27 5.68l3.25-5.62c1.23-2.14 3.75-1.6 2.58.49l-1.84 3.18c-1.41 2.2-2.82 3.24-3.74 3.24-.5-.06-.8-.37-.25-1.29zm-14.85-5.68c1.35-2.33 3.74-1.9 2.33.49l-.3.55c-1.11 1.9-2.64 1.83-3.5 1.53l1.47-2.57zm78.92 8.37c2.64 0 5.28-2.07 7.18-4.28-.18-.3-.55-.67-.86-.8l-.18.2c-1.66 1.95-3.8 3.48-5.46 3.48-1.41 0-2.27-.92-1.23-2.75l.25-.43c1.47.6 4.3.3 6.07-2.7l.3-.54c1.24-2.14.07-3.73-1.83-3.73-1.9 0-3.38.97-4.36 2.69l-2.27 3.85s-.06 0-.06-.06l-.19.18c-1.65 1.96-3.31 3.49-4.35 3.49-.5 0-.8-.37-.25-1.29l3.38-5.87c.98-1.77.06-3.05-1.23-3.05-.98 0-2.09.55-3.25 1.77l3.74-6.42h-2.4L138.77 181c-.06-.06-.18-.12-.25-.18l-.18.18c-1.66 1.96-3.31 3.49-4.36 3.49-.49 0-.8-.37-.24-1.29l4.97-8.68h1.9l.68-1.1h-1.9l2.2-3.8h-2.33l-2.2 3.8h-2.1l-.67 1.1h2.15l-4.67 8.07c-.98 1.71-.3 3.3 1.6 3.3 1.16 0 2.4-.73 3.68-1.83l-.92 1.59h2.33l3.56-6.12c3.56-4.46 5.16-3.91 4.18-2.2l-3.01 5.26c-.98 1.71-.3 3.3 1.6 3.3 1.4 0 3-1.1 4.47-2.56 0 1.52 1.17 2.62 3.07 2.62zm1.9-8.37c1.36-2.33 3.75-1.9 2.34.49l-.3.55c-1.11 1.9-2.65 1.83-3.5 1.53l1.47-2.57zm68.68 3.3l-.18.18c-1.66 1.96-3.32 3.49-4.36 3.49-.5 0-.8-.37-.25-1.29l7.86-13.57h-2.33l-3.44 5.87a2.53 2.53 0 00-2.15-1.22c-1.23 0-3 .97-3.99 2.69l-2.27 3.91c-.06 0-.12-.06-.12-.06l-.18.18c-1.66 1.96-3.32 3.49-4.36 3.49-.5 0-.8-.37-.25-1.29l3.38-5.87c.98-1.77.06-3.05-1.23-3.05-.98 0-2.09.55-3.25 1.7l.86-1.52h-2.34l-3.74 6.42c-.06-.06-.12-.12-.25-.12l-.18.18c-1.66 1.96-3.31 3.49-4.36 3.49-.49 0-.8-.37-.24-1.29l3.74-6.54h-1.16c.06-.98-.93-2.32-2.46-2.32-1.23 0-3 .97-3.99 2.69l-2.27 3.85-.12.12c-1.66 1.96-3.32 3.49-4.36 3.49-.49 0-.8-.37-.24-1.29l2.33-4.03c.8-1.41.43-2.2-.3-3.12l-1.3-1.6c-.3-.42-.3-.9.13-1.34l-1.23-1.34c-1.35 1.16-1.41 2.5-.62 3.54l.19.25c-1.05 1.47-2.4 3.42-3.93 5.2l.18.18c-1.9 2.2-3.56 3.6-5.4 4.4l2.95-5.01h-2.27l-.25.43c-1.22 2.14-2.64 3.73-4.48 3.73-1.6 0-1.9-1.6-.49-3.98l.68-1.16c.43.06.86.12 1.35.12 8.28 0 12.27-11.06 4.97-11.06-1.29 0-2.83.91-3.87 2.69l-3.62 6.23a3.8 3.8 0 01-2.09-3.3c0-1.1.5-2.14 1.48-2.94l-.74-1.34a5.24 5.24 0 00-2.4 4.34c0 1.84 1.05 3.6 2.95 4.59l-.67 1.22c-1.66 2.81-1.35 5.93 1.96 5.93.98 0 1.84-.3 2.52-.73l-.61 1.04c-3.13.98-5.1 2.2-5.1 3.97 0 2.2 3.44 2.7 5.1-.18l1.77-3.06c2.4-.73 4.8-2.38 7.37-5.38-.06-.06-.06-.12-.12-.24 1.04-1.23 1.9-2.39 3.68-4.77l.3.36c.31.37.44.86.13 1.35l-2.46 4.28c-.98 1.71-.3 3.3 1.6 3.3 1.16 0 2.45-.73 3.68-1.83 0 1.04.68 1.83 2.03 1.83.92 0 2.08-.61 3.25-1.53.12.92.86 1.53 2.02 1.53 1.1 0 2.34-.67 3.5-1.71l-.86 1.47h2.34l3.56-6.18c3.55-4.46 5.15-3.85 4.1-2.14l-3 5.26c-.98 1.71-.3 3.3 1.6 3.3 1.22 0 2.57-.86 3.92-2.02-.12 1.16.62 2.02 2.03 2.02.92 0 2.09-.61 3.25-1.53.12.92.86 1.53 2.03 1.53 1.9 0 4.1-2.08 6.07-4.28-.24-.12-.67-.49-.98-.61zm-47.8-8.68c.67-1.17 1.47-1.72 2.08-1.72 3.68 0 1.1 7.53-4.97 7.53h-.5l3.38-5.81zm-4.98 17.49c-.49.85-1.29.73-1.29.12 0-.62.55-1.29 2.33-1.96l-1.04 1.84zm24.37-8.44c-1.42 2.2-2.83 3.24-3.75 3.24-.49 0-.8-.37-.24-1.29l3.25-5.62c1.23-2.14 3.74-1.6 2.58.49l-1.84 3.18zm22.52-.13c-1.41 2.33-2.82 3.37-3.8 3.37-.5 0-.8-.37-.25-1.29l3.25-5.62c1.23-2.14 3.74-1.6 2.58.49l-1.78 3.05zm-71.87 21.78l-.18.18c-1.66 1.95-3.31 3.48-4.36 3.48-.49 0-.8-.37-.24-1.28l3.37-5.87c.98-1.78.06-3.06-1.23-3.06-.98 0-2.08.55-3.25 1.71l.86-1.53h-2.33l-3.75 6.48c-.12-.06-.18-.12-.3-.18l-.19.18a4.79 4.79 0 01-3.5 1.72l2.22-3.8c1.4-2.44.12-4.7-2.1-4.7-1.77 0-3.18.73-4.53 3.06l-1.17 1.95-.98 1.71c-.06-.06-.12-.06-.19-.12l-.18.18c-1.9 2.2-3.56 3.61-5.4 4.4l6.38-10.88h-2.33l-4.11 7.16c-1.78 1.65-3.2 2.57-3.62 2.38-.56-.24 0-1.1.3-1.59l4.55-7.89h-2.34l-3.74 6.42c-.06-.06-.12-.06-.18-.12l-.19.19c-1.66 1.95-3.31 3.48-4.36 3.48-.49 0-.8-.37-.24-1.28l3.38-5.87c.98-1.78.06-3.06-1.23-3.06-.98 0-2.09.55-3.26 1.71l.86-1.53h-2.33l-3.74 6.42c-.06-.06-.13-.12-.25-.12l-.18.18c-1.66 1.96-3.32 3.49-4.36 3.49-.49 0-.8-.37-.24-1.28l3.74-6.55h-1.35c.06-.97-.92-2.32-2.46-2.32-1.22 0-3 .98-3.98 2.69l-2.4 4.16a5.66 5.66 0 00-.49-.3l-.18.18c-1.66 1.95-3.75 3.48-6.02 3.48-1.6 0-2.58-1.59-1.16-3.97l.67-1.16c.43.06.86.12 1.35.12 2.46 0 5.28-1.29 7.12-4.47.68-1.16.92-2.2.92-3.12 0-2.07-1.35-3.48-3.07-3.48-1.29 0-2.82.92-3.86 2.69l-3.63 6.24a3.8 3.8 0 01-2.08-3.3c0-1.1.49-2.15 1.47-2.94l-.74-1.34a5.23 5.23 0 00-2.39 4.34c0 1.83 1.04 3.6 2.95 4.58l-.68 1.22c-1.65 2.82-.67 5.94 2.64 5.94 2.58 0 4.54-1.16 6.14-2.7-.5 1.47.24 2.7 1.9 2.7.92 0 2.09-.62 3.25-1.53.13.91.86 1.53 2.03 1.53 1.1 0 2.33-.68 3.5-1.72l-.86 1.47h2.33l3.56-6.17c3.56-4.47 5.15-3.86 4.11-2.14l-3 5.25c-.99 1.72-.31 3.3 1.59 3.3 1.23 0 2.64-.85 3.99-2.07-.3 1.28.3 2.08 1.47 2.08 1.1 0 2.4-.92 3.44-1.9l-1.29 2.2c-3.13.92-5.16 2.2-5.16 3.98 0 2.2 3.44 2.69 5.1-.19l1.78-3.05c1.96-.61 3.86-1.84 5.89-3.8-.3 3.25 3.99 3.98 6.63.68h.49c.86 0 2.02-.3 3.07-.92l-1.54 2.7h2.33l3.56-6.19c3.56-4.46 5.16-3.85 4.12-2.13l-3.01 5.25c-.98 1.72-.3 3.3 1.6 3.3 1.9 0 4.1-2.07 6.07-4.28-.06-.18-.49-.55-.8-.67zm-57.93-8.7c.67-1.15 1.47-1.7 2.09-1.7.85 0 1.28.55 1.28 1.4 0 2.14-2.64 6.06-6.26 6.06h-.49l3.38-5.75zm8.22 9.06c-1.4 2.2-2.82 3.24-3.74 3.24-.5 0-.8-.37-.25-1.28l3.26-5.63c1.22-2.14 3.74-1.59 2.57.49l-1.84 3.18zm17.68 8.44c-.5.85-1.3.73-1.3.12s.56-1.28 2.34-1.96l-1.04 1.84zm15.7-8.69h-.12c-.73 0-1.34.62-1.34 1.41 0 .3.06.55.24.8v.06c-1.1 1.9-3.74 1.53-2.4-.92l1.79-3.06 1.1-1.9c1.66-2.75 3.87-1.64 2.46.74l-1.72 2.88zm70.28.68a1.37 1.37 0 00-.86-.8l-.19.19c-.85.97-1.9 1.9-2.82 2.5.74-2.2.55-5.62 2.03-8.56l-1.72-.91c-.98 1.34-3.07 4.34-5.16 6.78l-.18.19c-1.66 1.95-3.31 3.48-4.36 3.48-.49 0-.98-.49-.98-1.59V204c1.66.19 3.38-.85 4.48-2.75l.61-1.1c2.15-3.73-1.35-4.95-3.74-2.75l3.31-5.75h-2.33l-6.63 11.5c-.12-.12-.3-.25-.43-.3l-.18.18c-1.66 1.95-3.8 3.48-5.46 3.48-1.41 0-2.27-.92-1.23-2.75l2.4-4.16c1.34-2.32 3.74-1.9 2.33.5l-.31.54h1.9l.3-.55c1.24-2.14.07-3.73-1.83-3.73-1.9 0-3.38.98-4.36 2.7l-2.27 3.9c-.06 0-.12-.06-.12-.06l-.19.19c-1.65 1.95-3.31 3.48-4.35 3.48-.5 0-.8-.36-.25-1.28l4.97-8.69h-2.33l-4.11 7.22c-1.78 1.6-3.13 2.5-3.56 2.32-.56-.24 0-1.1.3-1.59l4.55-7.88h-2.34l-4.54 7.76c-.49.43-1.04.86-1.47 1.23.74-2.2.55-5.63 2.02-8.57l-1.71-.91c-.99 1.34-6.32 8.44-8.47 10.88.18.3.55.55.86.8 1.35-1.53 5.77-7.22 6.56-8.32-.92 2.38-.43 6.73-2.64 6.73-.8 0-1.1-.86-1.1-.86l-1.47.73s.43 1.9 2.57 1.9c.25 0 .43 0 .68-.06h.06a8.05 8.05 0 003.44-1.47c0 .92.55 1.53 1.53 1.53 1.29 0 2.7-1.16 3.8-2.2-.24 1.22.5 2.2 1.97 2.2s3.07-1.16 4.6-2.7c0 1.54 1.23 2.7 3.13 2.7s3.75-1.04 5.4-2.45l-1.28 2.27h2.33l2.64-4.59v1.84c0 1.95.36 3 2.27 3 1.9 0 4.1-2.09 6.07-4.29 1.35-1.53 2.46-3.12 3.32-4.22-.92 2.39-.43 6.73-2.64 6.73-.8 0-1.1-.86-1.1-.86l-1.48.74s.43 1.9 2.58 1.9c.24 0 .43 0 .67-.07h.06c2.34-.43 4.73-2.32 6.45-4.34zm-15.47-1.84l.68-1.16c2.7-3.73 4.54-2.69 3.68-1.28l-1.1 1.9c-.68 1.22-2.7 2.07-3.26.54zm15.41 3.43c-.74 0-1.35.61-1.35 1.34 0 .74.55 1.35 1.35 1.35.73 0 1.35-.55 1.35-1.35 0-.73-.62-1.34-1.35-1.34zm.12-.92h2.33l7.3-12.66h-2.33l-7.3 12.66zM49.22 169.75c0 .18-.06.37-.12.55-.06.18-.19.37-.31.49s-.3.25-.5.37c-.18.06-.42.12-.67.12-.3 0-.55-.06-.8-.18-.24-.13-.48-.25-.67-.43-.18-.19-.24-.37-.37-.61a3.08 3.08 0 01-.12-.8c0-.55.12-.98.3-1.47.2-.42.44-.85.8-1.16.13-.12.31-.3.5-.43.18-.12.36-.24.55-.3.18-.06.3-.19.43-.25.12-.06.18-.06.24-.12l.86 1.22c-.12.06-.3.13-.49.25-.18.06-.37.18-.55.3-.19.13-.3.31-.43.5-.12.18-.18.36-.18.6.42 0 .73.13 1.04.37.37.19.49.55.49.98zm4.85 0c0 .18-.06.37-.12.55-.07.18-.19.37-.31.49s-.3.25-.5.37c-.18.06-.42.12-.67.12-.3 0-.55-.06-.8-.18-.24-.13-.49-.25-.67-.43-.12-.19-.25-.37-.37-.61a3.08 3.08 0 01-.12-.8c0-.55.12-.98.3-1.47.19-.42.43-.85.8-1.16.13-.12.31-.3.5-.43.18-.12.36-.24.55-.3.18-.06.3-.19.43-.25.12-.06.18-.06.24-.12l.86 1.22c-.12.06-.3.13-.49.25-.18.06-.37.18-.55.3-.19.13-.31.31-.43.5-.13.18-.19.36-.19.6.43 0 .74.13 1.05.37.3.19.49.55.49.98zm162.69 36.02c0-.19.06-.37.13-.55.06-.19.18-.37.3-.5.13-.12.3-.24.5-.36.18-.06.42-.12.67-.12.3 0 .55.06.8.18.24.12.49.25.67.43.18.18.25.37.37.61.06.25.12.5.12.8 0 .55-.12.98-.3 1.46-.19.43-.43.86-.8 1.17a3.41 3.41 0 01-1.05.73c-.18.06-.3.18-.42.24-.13.06-.19.06-.25.13l-.86-1.23c.12-.06.3-.12.5-.24.18-.06.36-.18.54-.3.19-.13.31-.31.43-.5.13-.18.19-.36.19-.6-.43 0-.74-.13-1.05-.37-.3-.19-.49-.56-.49-.98zm-4.78 0c0-.19.06-.37.12-.55.06-.19.18-.37.3-.5.13-.12.31-.24.5-.36.18-.06.43-.12.67-.12.3 0 .55.06.8.18s.49.25.67.43c.13.18.25.37.37.61.06.25.13.5.13.8 0 .55-.13.98-.31 1.46-.19.43-.43.86-.8 1.17-.12.12-.3.3-.49.42-.19.13-.37.25-.55.31-.19.06-.31.18-.43.24-.13.06-.19.06-.25.13l-.86-1.23c.19-.06.31-.12.5-.24.18-.06.36-.18.55-.3.18-.13.3-.31.43-.5.12-.18.18-.36.18-.6-.43 0-.74-.13-1.04-.37-.37-.19-.5-.56-.5-.98z" fill="#fff"></path>
  </symbol>
  <symbol xmlns="http://www.w3.org/2000/svg" viewBox="0 0 1200 57" id="back-triangle">
    <path d="M249.6 23.7L0 0v57h600L249.6 0v23.7zm700.8 0V0L600 57h599.9V0L950.4 23.7z" fill="#fff"></path>
  </symbol>
  <symbol xmlns="http://www.w3.org/2000/svg" viewBox="0 0 320 37" id="content-triangle">
    <path fill-rule="evenodd" clip-rule="evenodd" d="M-225 0h384v37L-225 0zm768 0H159v37L543 0z" fill="#fff"></path>
  </symbol>
  <symbol xmlns="http://www.w3.org/2000/svg" viewBox="0 0 9 19" id="icon-facebook">
    <path d="M6.3 3.4h2.4V0H5.8C2.7.2 1.5 2.4 1.9 6.1H0v3.5h2v9.3h3.8V9.6h2.9V6.1H5.8c0-1 0-2.4.5-2.7z" fill="#fff"></path>
  </symbol>
  <symbol xmlns="http://www.w3.org/2000/svg" viewBox="0 0 32 38" id="icon-gift">
    <path d="M30.58 11.2h-12.4c6.91-3.44 7.47-5.62 7.22-6.83-.56-1.98-2.85-3.5-4.98-2.69-2.8 1.07-3.56 5.22-4.32 8.2-.96-3.03-1.88-6.88-4.06-8.85A3.7 3.7 0 009.14 0c-2.03.2-4.92 2.69-3.7 5.47 1.11 2.69 4.82 4.4 7.3 5.78H1.43c-.81 0-1.42.65-1.42 1.41v5.68c0 .8.66 1.42 1.42 1.42h.15V38h28.96V19.77h.05c.81 0 1.42-.66 1.42-1.42v-5.68c0-.8-.66-1.46-1.42-1.46zm-9.35-8.25c1.07-.15 2.5.66 2.64 1.62.2 1.37-1.67 2.63-2.54 3.2-1.27.85-2.49 1.3-3.65 2.02.4-1.88 1.27-6.54 3.55-6.84zM9.75 7.91c-1.12-.76-3.25-2.23-3.2-3.9C6.6 2.2 9.45.72 10.97 2.1c1.93 1.67 2.85 5.57 3.56 8.3-1.63-.8-3.15-1.41-4.78-2.48zm3 28.57h-9.7V19.77h9.7v16.71zm0-18.23H1.52v-5.52h11.23v5.52zm5.08 18.23h-3.6V12.73h3.6v23.75zm11.17 0h-9.65V19.77h9.7v16.71H29zm1.48-18.23H19.35v-5.52h11.13v5.52z" fill="#81B3D2"></path>
  </symbol>
  <symbol xmlns="http://www.w3.org/2000/svg" viewBox="0 0 39 37" id="icon-house">
    <path d="M15.4 33.22h8.35V21.06H15.4v12.16zm6.84-1.48h-5.32v-9.2h5.27v9.2h.05z" fill="#81B3D2"></path>
    <path d="M37.9 20.04l1.1-1.07-5.17-5.03V.2h-7.2v6.72L19.47 0 0 19.03l1.1 1.06 4.07-3.96v19.23H3.13v1.47H36.5v-1.47h-2.66V16.08l4.07 3.96zM28.14 1.73h4.13v10.73l-4.13-4.02V1.73zm4.18 33.57H6.73V14.6L19.47 2.14l12.8 12.46v20.7h.05z" fill="#81B3D2"></path>
    <path d="M15.56 13.84a4.01 4.01 0 004.02 3.96 4.03 4.03 0 004.07-3.96 3.98 3.98 0 00-4.07-3.92 3.94 3.94 0 00-4.02 3.92zm4.02-2.55a2.59 2.59 0 012.6 2.55 2.58 2.58 0 01-2.6 2.54 2.59 2.59 0 01-2.61-2.54c0-1.38 1.2-2.55 2.6-2.55zm-9.19 9.77H8.82v1.99h1.57v-1.99zm3.08 0H11.9v1.99h1.57v-1.99zm-3.08 3.05H8.82v1.99h1.57v-2zm3.08 0H11.9v1.99h1.57v-2zm13.57-3.05h-1.56v1.99h1.56v-1.99zm3.14 0H28.6v1.99h1.57v-1.99zm-3.14 3.05h-1.56v1.99h1.56v-2zm3.14 0H28.6v1.99h1.57v-2z" fill="#81B3D2"></path>
  </symbol>
  <symbol xmlns="http://www.w3.org/2000/svg" viewBox="0 0 40 35" id="icon-burger">
    <path d="M37.74 23.3H2.26A2.23 2.23 0 000 25.48v1.77c0 1.17 1 2.13 2.26 2.13h.52v.5a5.12 5.12 0 005.2 5.02h24.04c2.89 0 5.2-2.28 5.2-5.01v-.51h.52c1.21 0 2.26-.96 2.26-2.18v-1.77c0-1.12-1-2.13-2.26-2.13zm-2.04 6.59c0 1.92-1.63 3.49-3.63 3.49H7.93c-2 0-3.63-1.57-3.63-3.5v-.5h31.4v.5zm2.73-2.69c0 .36-.32.66-.69.66H2.26a.68.68 0 01-.69-.66v-1.77c0-.3.32-.61.69-.61H37.8c.36 0 .68.3.68.66v1.72h-.05zm-29.93-8l2.84 2.02 2.89-2.02 2.88 2.02L20 19.2l2.83 2.02 2.9-2.02 2.88 2.02 2.89-2.02 2.88 2.02 3.31-2.38-.9-1.21-2.4 1.67-2.9-2.03-2.88 2.03-2.89-2.03-2.89 2.03L20 17.27l-2.89 2.03-2.88-2.03-2.9 2.03-2.83-2.03-2.88 2.03-2.42-1.67-.94 1.21 3.36 2.38L8.5 19.2zm28.72-3.45c0-.3.05-1.31 0-1.52C36.85 6.33 29.29 0 20 0 10.7 0 3.1 6.33 2.73 14.23v1.52h34.49zM20 1.52c8.4 0 15.33 5.67 15.64 12.71H4.3C4.67 7.2 11.6 1.52 20 1.52z" fill="#81B3D2"></path>
    <path d="M20 8.61c.58 0 1.05-.45 1.05-1.01S20.58 6.58 20 6.58c-.58 0-1.05.46-1.05 1.02s.47 1 1.05 1zm-4.2-2.48c.58 0 1.05-.45 1.05-1.01S16.38 4.1 15.8 4.1c-.58 0-1.05.46-1.05 1.02s.47 1 1.05 1zm8.4 0c.58 0 1.05-.45 1.05-1.01S24.78 4.1 24.2 4.1c-.58 0-1.05.46-1.05 1.02s.47 1 1.05 1z" fill="#81B3D2"></path>
  </symbol>
</svg>
